<svg xmlns="http://www.w3.org/2000/svg" xmlns:xlink="http://www.w3.org/1999/xlink" width="1080" zoomAndPan="magnify" viewBox="0 0 810 809.999993" height="1080" preserveAspectRatio="xMidYMid meet" version="1.0"><defs><filter x="0%" y="0%" width="100%" height="100%" id="2bf107fa6f"><feColorMatrix values="0 0 0 0 1 0 0 0 0 1 0 0 0 0 1 0 0 0 1 0" color-interpolation-filters="sRGB"/></filter><clipPath id="14a5deff1d"><path d="M 82 237 L 120 237 L 120 242.121094 L 82 242.121094 Z M 82 237 " clip-rule="nonzero"/></clipPath><clipPath id="2ecfca3102"><path d="M 224 177 L 267.609375 177 L 267.609375 188 L 224 188 Z M 224 177 " clip-rule="nonzero"/></clipPath><mask id="4618c7cd27"><g filter="url(#2bf107fa6f)"><rect x="-81" width="972" fill="#000000" y="-80.999999" height="971.999992" fill-opacity="0.18"/></g></mask><clipPath id="c2c44dbcc7"><path d="M 1 0.679688 L 51 0.679688 L 51 47.71875 L 1 47.71875 Z M 1 0.679688 " clip-rule="nonzero"/></clipPath><clipPath id="3c0c170b33"><rect x="0" width="52" y="0" height="48"/></clipPath><mask id="983cfb79e2"><g filter="url(#2bf107fa6f)"><rect x="-81" width="972" fill="#000000" y="-80.999999" height="971.999992" fill-opacity="0.18"/></g></mask><clipPath id="caf74ec918"><rect x="0" width="46" y="0" height="60"/></clipPath><mask id="d598663dfc"><g filter="url(#2bf107fa6f)"><rect x="-81" width="972" fill="#000000" y="-80.999999" height="971.999992" fill-opacity="0.25"/></g></mask><clipPath id="fecca08e7f"><rect x="0" width="55" y="0" height="81"/></clipPath><mask id="07521548db"><g filter="url(#2bf107fa6f)"><rect x="-81" width="972" fill="#000000" y="-80.999999" height="971.999992" fill-opacity="0.24"/></g></mask><clipPath id="6c7432965d"><path d="M 1 0.558594 L 33 0.558594 L 33 46.878906 L 1 46.878906 Z M 1 0.558594 " clip-rule="nonzero"/></clipPath><clipPath id="d55dc930ac"><rect x="0" width="34" y="0" height="47"/></clipPath><mask id="84fced6f24"><g filter="url(#2bf107fa6f)"><rect x="-81" width="972" fill="#000000" y="-80.999999" height="971.999992" fill-opacity="0.24"/></g></mask><clipPath id="ddf3fd8d25"><path d="M 0.160156 0.078125 L 38.558594 0.078125 L 38.558594 59 L 0.160156 59 Z M 0.160156 0.078125 " clip-rule="nonzero"/></clipPath><clipPath id="efe9f7acb3"><rect x="0" width="39" y="0" height="60"/></clipPath></defs><path fill="#222020" d="M 0.539062 198.980469 C 2.875 197.839844 3.867188 194.804688 6.402344 194.011719 C 9 193.199219 11.890625 194.804688 14.269531 193.042969 C 15.304688 192.273438 16.078125 191 17.332031 190.535156 C 18.433594 190.140625 19.582031 190.582031 20.636719 190.910156 C 21.542969 191.195312 22.445312 191.460938 23.347656 191.746094 C 26.984375 192.867188 30.601562 193.96875 34.234375 195.089844 C 38.359375 196.34375 42.457031 197.617188 46.578125 198.871094 C 46.976562 199.003906 47.152344 198.367188 46.753906 198.234375 C 39.21875 195.925781 31.703125 193.617188 24.164062 191.308594 C 22.402344 190.777344 20.574219 189.964844 18.742188 189.746094 C 17.464844 189.589844 16.449219 190.097656 15.546875 190.933594 C 14.292969 192.097656 13.34375 193.175781 11.515625 193.261719 C 9.992188 193.351562 8.496094 192.957031 6.972656 193.199219 C 3.84375 193.683594 2.875 197.089844 0.230469 198.390625 C -0.167969 198.609375 0.164062 199.179688 0.539062 198.980469 Z M 0.539062 198.980469 " fill-opacity="1" fill-rule="nonzero"/><path fill="#222020" d="M 40.144531 196.210938 C 41.707031 196.605469 42.941406 195.046875 44.351562 194.582031 C 46.246094 193.945312 48.273438 194.210938 49.992188 195.199219 C 50.367188 195.417969 50.699219 194.847656 50.324219 194.628906 C 48.871094 193.769531 47.21875 193.417969 45.542969 193.636719 C 44.816406 193.726562 44.132812 193.925781 43.46875 194.210938 C 42.523438 194.628906 41.421875 195.835938 40.320312 195.574219 C 39.898438 195.464844 39.722656 196.101562 40.144531 196.210938 Z M 40.144531 196.210938 " fill-opacity="1" fill-rule="nonzero"/><path fill="#222020" d="M 57.132812 194.5625 C 55.65625 193.351562 54.246094 192.054688 52.925781 190.667969 C 52.308594 190.03125 51.714844 189.347656 51.140625 188.667969 C 50.808594 188.269531 50.480469 187.875 50.171875 187.480469 C 49.949219 187.195312 49.730469 186.90625 49.53125 186.621094 C 49.179688 186.269531 49.179688 185.832031 49.554688 185.347656 C 49.816406 185.457031 50.238281 185.191406 50.015625 184.882812 C 48.671875 183.082031 47.679688 181.101562 47.039062 178.945312 C 46.910156 179.078125 46.777344 179.210938 46.644531 179.339844 C 47.371094 179.539062 47.898438 179.914062 48.296875 180.53125 C 48.515625 180.882812 49.089844 180.574219 48.871094 180.199219 C 45.585938 174.527344 42.898438 168.542969 40.871094 162.320312 C 40.695312 162.429688 40.496094 162.539062 40.320312 162.648438 C 49.554688 171.710938 53.742188 184.3125 61.519531 194.453125 C 61.785156 194.78125 62.359375 194.453125 62.09375 194.121094 C 54.292969 183.9375 50.058594 171.292969 40.78125 162.1875 C 40.5625 161.96875 40.121094 162.1875 40.230469 162.515625 C 42.28125 168.808594 44.96875 174.832031 48.296875 180.550781 C 48.496094 180.441406 48.671875 180.332031 48.871094 180.222656 C 48.363281 179.453125 47.703125 178.945312 46.820312 178.726562 C 46.578125 178.660156 46.335938 178.878906 46.421875 179.121094 C 47.085938 181.320312 48.097656 183.367188 49.464844 185.214844 C 49.621094 185.058594 49.773438 184.90625 49.929688 184.753906 C 49.3125 184.46875 48.628906 184.753906 48.472656 185.476562 C 48.273438 186.511719 49.53125 187.65625 50.105469 188.382812 C 52.066406 190.824219 54.292969 193.042969 56.714844 195.023438 C 57.003906 195.289062 57.464844 194.824219 57.132812 194.5625 Z M 57.132812 194.5625 " fill-opacity="1" fill-rule="nonzero"/><path fill="#222020" d="M 54.820312 180.816406 C 50.765625 174.769531 47.480469 168.277344 45.058594 161.417969 C 44.992188 161.550781 44.902344 161.679688 44.835938 161.8125 C 45.585938 161.636719 46.226562 161.921875 46.644531 162.582031 C 46.863281 162.957031 47.394531 162.628906 47.21875 162.253906 C 43.800781 154.886719 40.320312 147.210938 40.5625 138.917969 C 40.363281 138.984375 40.144531 139.027344 39.945312 139.09375 C 45.828125 151.191406 51.425781 163.441406 56.714844 175.800781 C 56.871094 176.152344 57.441406 175.890625 57.3125 175.535156 C 56.429688 172.898438 55.570312 170.238281 54.6875 167.597656 C 54.269531 166.300781 53.828125 165.023438 53.410156 163.726562 C 53.125 162.867188 52.507812 161 53.742188 160.539062 C 53.609375 160.492188 53.5 160.425781 53.367188 160.382812 C 54.953125 163.484375 56.515625 166.585938 58.105469 169.6875 C 58.300781 170.0625 58.875 169.730469 58.675781 169.355469 C 56.957031 165.992188 56.164062 162.273438 56.320312 158.492188 C 56.097656 158.515625 55.878906 158.558594 55.679688 158.578125 C 60.265625 169.949219 65.574219 181.035156 71.546875 191.746094 C 71.746094 192.121094 72.320312 191.789062 72.121094 191.417969 C 66.171875 180.75 60.882812 169.730469 56.320312 158.40625 C 56.1875 158.074219 55.679688 158.097656 55.679688 158.492188 C 55.527344 162.386719 56.363281 166.191406 58.125 169.6875 C 58.324219 169.578125 58.5 169.46875 58.699219 169.355469 C 57.113281 166.257812 55.546875 163.15625 53.960938 160.054688 C 53.894531 159.945312 53.71875 159.855469 53.585938 159.898438 C 51.382812 160.714844 52.792969 163.859375 53.277344 165.332031 C 54.421875 168.785156 55.546875 172.261719 56.695312 175.714844 C 56.890625 175.625 57.089844 175.535156 57.289062 175.449219 C 52 163.089844 46.402344 150.839844 40.515625 138.742188 C 40.363281 138.433594 39.898438 138.609375 39.898438 138.917969 C 39.636719 147.320312 43.183594 155.128906 46.644531 162.582031 C 46.84375 162.472656 47.019531 162.363281 47.21875 162.253906 C 46.644531 161.351562 45.71875 160.957031 44.660156 161.175781 C 44.484375 161.21875 44.375 161.417969 44.441406 161.570312 C 46.886719 168.476562 50.191406 175.03125 54.269531 181.125 C 54.488281 181.496094 55.0625 181.167969 54.820312 180.816406 Z M 54.820312 180.816406 " fill-opacity="1" fill-rule="nonzero"/><path fill="#222020" d="M 11.273438 223.328125 C 18.898438 219.65625 26.941406 215.917969 35.648438 216.796875 C 39.769531 217.214844 43.757812 218.402344 47.855469 218.929688 C 49.929688 219.195312 52.023438 219.304688 54.09375 219.0625 C 56.03125 218.820312 57.863281 218.117188 59.757812 217.699219 C 62.203125 217.148438 64.429688 217.722656 66.789062 218.378906 C 68.726562 218.910156 70.644531 219.347656 72.648438 218.886719 C 73.070312 218.796875 72.890625 218.160156 72.472656 218.25 C 68.460938 219.195312 64.695312 216.3125 60.636719 216.882812 C 58.632812 217.171875 56.761719 217.960938 54.777344 218.3125 C 52.683594 218.667969 50.542969 218.621094 48.429688 218.359375 C 44.265625 217.875 40.207031 216.644531 36.019531 216.179688 C 31.898438 215.71875 27.824219 216.246094 23.878906 217.390625 C 19.382812 218.710938 15.128906 220.734375 10.941406 222.757812 C 10.542969 222.933594 10.898438 223.503906 11.273438 223.328125 Z M 11.273438 223.328125 " fill-opacity="1" fill-rule="nonzero"/><path fill="#222020" d="M 56.011719 241.5625 C 58.589844 240.460938 61.125 239.253906 63.570312 237.890625 C 64.847656 237.164062 66.105469 236.414062 67.359375 235.625 C 68.484375 234.898438 69.609375 233.863281 70.84375 233.335938 C 72.230469 232.765625 74.324219 233.84375 75.714844 234.261719 C 77.191406 234.722656 78.667969 235.160156 80.121094 235.625 C 83.140625 236.546875 86.160156 237.46875 89.15625 238.394531 C 89.554688 238.527344 89.730469 237.890625 89.332031 237.757812 C 86.117188 236.765625 82.875 235.777344 79.65625 234.789062 C 78.117188 234.304688 76.574219 233.84375 75.03125 233.359375 C 73.839844 232.984375 72.339844 232.214844 71.085938 232.523438 C 69.917969 232.808594 68.859375 233.820312 67.867188 234.480469 C 66.589844 235.316406 65.265625 236.128906 63.945312 236.898438 C 61.277344 238.417969 58.523438 239.78125 55.679688 240.96875 C 55.285156 241.144531 55.636719 241.714844 56.011719 241.5625 Z M 56.011719 241.5625 " fill-opacity="1" fill-rule="nonzero"/><g clip-path="url(#14a5deff1d)"><path fill="#222020" d="M 83.425781 242.242188 C 85.101562 241.40625 86.777344 240.550781 88.453125 239.714844 C 89.996094 238.921875 91.648438 237.867188 93.410156 237.710938 C 95.195312 237.535156 96.585938 238.703125 98.125 239.382812 C 99.425781 239.957031 100.835938 240.285156 102.246094 240.375 C 105.554688 240.550781 108.640625 238.898438 111.921875 239.078125 C 114.546875 239.230469 117.191406 241.386719 119.769531 240.023438 C 120.144531 239.824219 119.8125 239.253906 119.4375 239.449219 C 117.828125 240.308594 116.089844 239.472656 114.5 238.964844 C 113.136719 238.527344 111.8125 238.328125 110.378906 238.484375 C 106.984375 238.835938 103.878906 240.265625 100.398438 239.449219 C 97.507812 238.789062 95.304688 236.394531 92.199219 237.292969 C 90.765625 237.710938 89.421875 238.503906 88.097656 239.164062 C 86.421875 240 84.75 240.859375 83.074219 241.695312 C 82.722656 241.871094 83.050781 242.441406 83.425781 242.242188 Z M 83.425781 242.242188 " fill-opacity="1" fill-rule="nonzero"/></g><path fill="#222020" d="M 96.296875 237.46875 C 94.929688 236.28125 93.695312 234.964844 92.683594 233.445312 C 92.21875 232.765625 91.800781 232.039062 91.40625 231.3125 C 91.207031 230.9375 91.03125 230.566406 90.875 230.191406 C 90.742188 229.882812 90.613281 229.597656 90.5 229.289062 C 90.300781 228.957031 90.390625 228.652344 90.765625 228.367188 C 90.964844 228.277344 91.164062 228.191406 91.359375 228.101562 C 88.9375 224.539062 87.417969 220.492188 86.910156 216.226562 C 86.710938 216.3125 86.535156 216.378906 86.335938 216.46875 C 86.734375 216.972656 87.128906 217.480469 87.546875 218.007812 C 87.789062 218.3125 88.253906 217.917969 88.078125 217.609375 C 84.242188 210.769531 82.191406 203.074219 82.148438 195.242188 C 81.949219 195.332031 81.773438 195.398438 81.574219 195.484375 C 83.074219 196.695312 84.21875 198.191406 84.925781 199.972656 C 85.125 199.882812 85.324219 199.796875 85.519531 199.707031 C 83.800781 196.078125 83.449219 191.988281 84.464844 188.117188 C 84.242188 188.117188 84.042969 188.117188 83.824219 188.117188 C 88.339844 201.027344 92.835938 213.914062 97.355469 226.824219 C 97.488281 227.222656 98.125 227.046875 97.996094 226.648438 C 95.726562 220.03125 94.601562 213.082031 94.667969 206.0625 C 94.46875 206.152344 94.292969 206.21875 94.09375 206.304688 C 95.4375 207.515625 96.273438 209.035156 96.585938 210.816406 C 96.648438 211.1875 97.246094 211.101562 97.222656 210.726562 C 97.15625 209.386719 97.070312 208.023438 97.003906 206.679688 C 96.828125 206.769531 96.671875 206.878906 96.496094 206.964844 C 97.664062 207.714844 97.882812 209.691406 98.257812 210.925781 C 98.65625 212.246094 99.050781 213.5625 99.472656 214.90625 C 100.285156 217.632812 101.125 220.339844 101.941406 223.066406 C 103.59375 228.496094 105.246094 233.953125 106.898438 239.382812 C 107.03125 239.78125 107.667969 239.625 107.535156 239.207031 C 105.753906 233.359375 103.988281 227.484375 102.203125 221.636719 C 101.34375 218.777344 100.460938 215.917969 99.601562 213.058594 C 99.164062 211.585938 98.722656 210.132812 98.28125 208.660156 C 97.996094 207.757812 97.664062 206.945312 96.847656 206.417969 C 96.648438 206.285156 96.339844 206.460938 96.339844 206.703125 C 96.40625 208.042969 96.496094 209.40625 96.5625 210.75 C 96.78125 210.726562 97.003906 210.683594 97.203125 210.660156 C 96.890625 208.769531 95.96875 207.121094 94.535156 205.84375 C 94.3125 205.644531 93.984375 205.777344 93.960938 206.085938 C 93.894531 213.144531 95.019531 220.164062 97.3125 226.847656 C 97.53125 226.78125 97.730469 226.738281 97.949219 226.671875 C 93.433594 213.761719 88.9375 200.875 84.417969 187.964844 C 84.308594 187.675781 83.867188 187.632812 83.78125 187.964844 C 82.722656 192.03125 83.117188 196.277344 84.902344 200.058594 C 85.058594 200.390625 85.652344 200.148438 85.5 199.796875 C 84.75 197.90625 83.582031 196.300781 81.972656 195.023438 C 81.75 194.847656 81.398438 194.957031 81.398438 195.265625 C 81.445312 203.203125 83.515625 211.035156 87.417969 217.960938 C 87.59375 217.832031 87.769531 217.699219 87.945312 217.566406 C 87.546875 217.0625 87.152344 216.554688 86.734375 216.027344 C 86.554688 215.808594 86.136719 215.984375 86.160156 216.269531 C 86.667969 220.667969 88.210938 224.824219 90.699219 228.476562 C 90.917969 228.785156 91.359375 228.585938 91.292969 228.210938 C 91.183594 227.59375 90.457031 227.375 89.949219 227.75 C 89.023438 228.410156 89.929688 229.972656 90.257812 230.71875 C 91.515625 233.511719 93.386719 235.953125 95.703125 237.953125 C 96.164062 238.195312 96.628906 237.734375 96.296875 237.46875 Z M 96.296875 237.46875 " fill-opacity="1" fill-rule="nonzero"/><path fill="#222020" d="M 73.246094 188.140625 C 72.957031 184.003906 80.472656 186.378906 82.566406 186.777344 C 86.003906 187.414062 89.421875 188.050781 92.859375 188.691406 C 99.714844 189.964844 106.589844 191.242188 113.445312 192.515625 C 113.863281 192.605469 114.039062 191.964844 113.621094 191.878906 C 105.753906 190.40625 97.90625 188.953125 90.039062 187.480469 C 86.183594 186.753906 82.324219 186.027344 78.46875 185.324219 C 77.078125 185.058594 75.472656 184.773438 74.171875 185.5 C 73.179688 186.027344 72.515625 186.996094 72.605469 188.140625 C 72.605469 188.558594 73.289062 188.558594 73.246094 188.140625 Z M 73.246094 188.140625 " fill-opacity="1" fill-rule="nonzero"/><path fill="#222020" d="M 108.882812 191.789062 C 111.171875 192.03125 112.585938 189.855469 114.367188 188.800781 C 115.890625 187.917969 117.210938 188.601562 118.777344 188.910156 C 120.519531 189.261719 122.304688 189.304688 124.066406 189.085938 C 124.484375 189.039062 124.484375 188.382812 124.066406 188.425781 C 122.082031 188.667969 120.097656 188.578125 118.160156 188.09375 C 116.992188 187.789062 115.933594 187.414062 114.765625 187.875 C 112.695312 188.667969 111.285156 191.394531 108.882812 191.128906 C 108.464844 191.085938 108.464844 191.746094 108.882812 191.789062 Z M 108.882812 191.789062 " fill-opacity="1" fill-rule="nonzero"/><path fill="#222020" d="M 150.910156 234.085938 C 156.199219 232.238281 161.53125 230.386719 166.996094 229.070312 C 172.707031 227.707031 178.457031 227.15625 184.320312 227.332031 C 190.117188 227.507812 195.867188 228.167969 201.640625 228.695312 C 207.4375 229.246094 213.234375 229.773438 219.03125 230.324219 C 225.6875 230.9375 232.363281 231.554688 239.019531 232.191406 C 239.4375 232.238281 239.4375 231.578125 239.019531 231.53125 C 227.140625 230.433594 215.261719 229.332031 203.363281 228.210938 C 191.921875 227.15625 180.417969 225.59375 169.023438 227.949219 C 162.765625 229.246094 156.726562 231.355469 150.710938 233.445312 C 150.335938 233.578125 150.511719 234.214844 150.910156 234.085938 Z M 150.910156 234.085938 " fill-opacity="1" fill-rule="nonzero"/><path fill="#222020" d="M 174.203125 212.441406 C 178.148438 211.605469 181.851562 209.957031 185.578125 208.460938 C 189.566406 206.878906 193.597656 205.777344 197.875 205.40625 C 202.195312 205.03125 206.535156 205.25 210.832031 205.515625 C 215.152344 205.777344 219.472656 206.085938 223.8125 206.394531 C 228.859375 206.769531 233.929688 207.1875 238.976562 207.625 C 239.394531 207.667969 239.394531 207.007812 238.976562 206.964844 C 230.027344 206.175781 221.082031 205.492188 212.109375 204.921875 C 203.582031 204.371094 195.1875 204.152344 187.054688 207.164062 C 182.734375 208.769531 178.546875 210.816406 174.007812 211.78125 C 173.632812 211.894531 173.785156 212.53125 174.203125 212.441406 Z M 174.203125 212.441406 " fill-opacity="1" fill-rule="nonzero"/><g clip-path="url(#2ecfca3102)"><path fill="#222020" d="M 225.003906 187.082031 C 228.15625 184.6875 231.484375 182.332031 235.007812 180.53125 C 236.726562 179.648438 238.578125 178.945312 240.519531 178.792969 C 242.613281 178.617188 244.707031 179.035156 246.753906 179.296875 C 250.921875 179.804688 255.109375 180.113281 259.296875 180.375 C 262.074219 180.550781 265.597656 180.949219 267.5625 178.527344 C 267.824219 178.199219 267.363281 177.738281 267.097656 178.066406 C 264.871094 180.816406 260.175781 179.78125 257.136719 179.582031 C 252.949219 179.296875 248.804688 178.902344 244.640625 178.375 C 242.855469 178.152344 241.09375 177.976562 239.304688 178.308594 C 237.542969 178.617188 235.890625 179.320312 234.328125 180.15625 C 230.933594 181.957031 227.714844 184.203125 224.652344 186.535156 C 224.34375 186.777344 224.671875 187.347656 225.003906 187.082031 Z M 225.003906 187.082031 " fill-opacity="1" fill-rule="nonzero"/></g><path fill="#222020" d="M 103.679688 183.453125 C 106.808594 181.101562 109.960938 178.769531 113.089844 176.417969 C 116.089844 174.171875 118.886719 171.820312 122.808594 171.621094 C 126.511719 171.445312 130.304688 171.863281 133.984375 172.171875 C 137.949219 172.5 141.894531 172.941406 145.816406 173.492188 C 149.125 173.953125 153.070312 175.183594 156.199219 173.46875 C 156.574219 173.273438 156.242188 172.699219 155.867188 172.898438 C 154.257812 173.777344 152.472656 173.777344 150.6875 173.558594 C 148.773438 173.316406 146.855469 172.984375 144.9375 172.722656 C 141.234375 172.214844 137.507812 171.796875 133.761719 171.488281 C 130.082031 171.183594 126.269531 170.742188 122.589844 170.960938 C 119.175781 171.160156 116.640625 172.917969 113.972656 174.921875 C 110.425781 177.5625 106.898438 180.222656 103.351562 182.859375 C 103.019531 183.148438 103.351562 183.71875 103.679688 183.453125 Z M 103.679688 183.453125 " fill-opacity="1" fill-rule="nonzero"/><path fill="#222020" d="M 227.671875 206.703125 C 227.867188 205.25 228.15625 203.84375 228.574219 202.433594 C 228.773438 201.773438 228.972656 201.117188 229.234375 200.457031 C 229.390625 200.058594 229.808594 199.398438 230.382812 199.554688 C 230.667969 199.640625 230.800781 200.632812 230.820312 200.828125 C 230.867188 201.183594 231.351562 201.292969 231.460938 200.917969 C 232.496094 197.550781 233.6875 193.859375 236.859375 191.898438 C 236.683594 191.8125 236.53125 191.703125 236.351562 191.613281 C 236.351562 192.164062 236.332031 192.738281 236.332031 193.285156 C 236.332031 193.59375 236.792969 193.746094 236.949219 193.460938 C 238.910156 189.394531 241.046875 185.125 245.015625 182.664062 C 244.859375 182.53125 244.683594 182.421875 244.53125 182.289062 C 242.546875 187.414062 240.234375 192.40625 237.609375 197.246094 C 237.433594 197.550781 237.875 197.949219 238.140625 197.640625 C 239.617188 195.882812 241.113281 194.121094 243.054688 192.847656 C 242.898438 192.691406 242.746094 192.539062 242.589844 192.382812 C 240.144531 197.53125 237.476562 202.546875 234.546875 207.425781 C 234.328125 207.800781 234.898438 208.132812 235.121094 207.757812 C 238.027344 202.875 240.71875 197.859375 243.164062 192.714844 C 243.296875 192.449219 243.007812 192.054688 242.699219 192.253906 C 240.71875 193.570312 239.175781 195.351562 237.652344 197.15625 C 237.828125 197.289062 238.007812 197.421875 238.183594 197.550781 C 240.828125 192.671875 243.164062 187.632812 245.167969 182.441406 C 245.277344 182.179688 244.90625 181.9375 244.683594 182.070312 C 240.605469 184.597656 238.402344 188.929688 236.375 193.109375 C 236.574219 193.175781 236.792969 193.21875 236.992188 193.285156 C 236.992188 192.738281 237.015625 192.164062 237.015625 191.613281 C 237.015625 191.371094 236.726562 191.195312 236.507812 191.328125 C 233.203125 193.375 231.902344 197.199219 230.820312 200.742188 C 231.042969 200.765625 231.261719 200.808594 231.460938 200.828125 C 231.351562 199.707031 230.335938 197.792969 229.101562 199.222656 C 228.484375 199.949219 228.242188 201.136719 227.980469 202.039062 C 227.539062 203.492188 227.230469 204.988281 227.007812 206.503906 C 226.988281 206.945312 227.605469 207.121094 227.671875 206.703125 Z M 227.671875 206.703125 " fill-opacity="1" fill-rule="nonzero"/><path fill="#222020" d="M 73.6875 169.578125 C 75.40625 168.652344 77.144531 167.730469 79.042969 167.222656 C 81.046875 166.695312 83.03125 166.871094 85.035156 167.136719 C 89.023438 167.664062 93.011719 168.191406 96.980469 168.71875 C 97.398438 168.785156 97.398438 168.125 96.980469 168.058594 C 92.726562 167.488281 88.453125 166.871094 84.199219 166.367188 C 82.238281 166.125 80.363281 166.125 78.46875 166.675781 C 76.660156 167.203125 74.984375 168.105469 73.332031 168.984375 C 72.957031 169.226562 73.3125 169.773438 73.6875 169.578125 Z M 73.6875 169.578125 " fill-opacity="1" fill-rule="nonzero"/><path fill="#222020" d="M 207.746094 20.394531 C 209.335938 19.054688 211.558594 19.316406 213.300781 20.175781 C 214.625 20.8125 215.703125 22.109375 217.246094 22.175781 C 218.679688 22.21875 219.867188 21.253906 221.082031 20.613281 C 221.894531 20.195312 222.734375 19.910156 223.660156 20.109375 C 224.652344 20.308594 225.511719 20.878906 226.414062 21.273438 C 229.390625 22.574219 231.375 20.769531 233.886719 19.339844 C 234.589844 18.945312 235.339844 18.589844 236.15625 18.527344 C 237.191406 18.4375 238.117188 18.898438 239.042969 19.296875 C 240.496094 19.910156 241.597656 20.152344 243.074219 19.558594 C 244.597656 18.964844 245.832031 19.054688 247.351562 19.601562 C 248.320312 19.957031 249.246094 20.394531 250.261719 20.613281 C 251.78125 20.96875 253.410156 20.878906 254.558594 19.714844 C 254.867188 19.40625 254.382812 18.945312 254.09375 19.25 C 252.617188 20.746094 250.371094 20.042969 248.671875 19.382812 C 246.953125 18.722656 245.191406 18.019531 243.363281 18.703125 C 242.214844 19.140625 241.445312 19.449219 240.210938 19.03125 C 239.371094 18.746094 238.601562 18.285156 237.742188 18.042969 C 236.441406 17.644531 235.230469 17.867188 234.039062 18.460938 C 232.671875 19.140625 231.484375 20.21875 230.050781 20.789062 C 228.15625 21.539062 226.679688 20.550781 224.960938 19.824219 C 223.703125 19.296875 222.511719 19.207031 221.257812 19.757812 C 219.734375 20.4375 218.257812 21.933594 216.476562 21.296875 C 215.527344 20.96875 214.777344 20.195312 213.917969 19.714844 C 213.191406 19.316406 212.398438 19.03125 211.582031 18.878906 C 210.015625 18.589844 208.496094 18.855469 207.261719 19.890625 C 206.953125 20.21875 207.4375 20.679688 207.746094 20.394531 Z M 207.746094 20.394531 " fill-opacity="1" fill-rule="nonzero"/><path fill="#222020" d="M 215.679688 35.417969 C 216.101562 35.417969 216.101562 34.757812 215.679688 34.757812 C 215.261719 34.757812 215.261719 35.417969 215.679688 35.417969 Z M 215.679688 35.417969 " fill-opacity="1" fill-rule="nonzero"/><path fill="#222020" d="M 220.089844 37.8125 C 221.125 35.945312 223.570312 36.847656 225.089844 37.460938 C 226.613281 38.078125 227.980469 38.453125 229.585938 37.902344 C 230.910156 37.441406 232.101562 36.558594 233.464844 36.253906 C 235.363281 35.8125 236.441406 37.417969 238.160156 37.792969 C 240.847656 38.386719 243.558594 35.394531 246.09375 36.648438 C 246.800781 37 247.285156 37.460938 248.121094 37.394531 C 248.894531 37.351562 249.597656 36.976562 250.347656 36.800781 C 252.441406 36.316406 254.625 36.691406 256.496094 37.726562 C 256.871094 37.921875 257.203125 37.351562 256.828125 37.152344 C 255.636719 36.496094 254.359375 36.097656 253.015625 35.964844 C 252.332031 35.902344 251.625 35.921875 250.945312 36.03125 C 250.128906 36.140625 249.378906 36.496094 248.585938 36.648438 C 247.503906 36.847656 247.042969 36.316406 246.160156 35.945312 C 245.71875 35.769531 245.234375 35.679688 244.773438 35.703125 C 243.671875 35.746094 242.613281 36.207031 241.597656 36.582031 C 240.300781 37.066406 238.910156 37.527344 237.585938 36.867188 C 236.464844 36.316406 235.582031 35.484375 234.261719 35.484375 C 231.527344 35.503906 229.609375 38.121094 226.722656 37.328125 C 224.585938 36.734375 221.148438 34.648438 219.558594 37.460938 C 219.316406 37.859375 219.890625 38.1875 220.089844 37.8125 Z M 220.089844 37.8125 " fill-opacity="1" fill-rule="nonzero"/><path fill="#222020" d="M 198.710938 64.140625 C 200.277344 62.910156 202.0625 62.972656 203.78125 63.765625 C 204.726562 64.207031 205.742188 64.625 206.734375 64.03125 C 207.308594 63.679688 207.679688 63.128906 208.363281 62.929688 C 209.089844 62.710938 209.863281 62.863281 210.566406 63.039062 C 211.824219 63.347656 213.035156 63.898438 214.335938 63.984375 C 215.878906 64.097656 217.289062 63.4375 218.789062 63.28125 C 220.398438 63.128906 221.523438 64.097656 223.019531 64.316406 C 224.476562 64.515625 225.597656 63.347656 227.054688 63.566406 C 228.816406 63.832031 230.558594 64.425781 232.296875 64.867188 C 232.71875 64.976562 232.894531 64.339844 232.472656 64.226562 C 230.644531 63.765625 228.75 63.0625 226.878906 62.863281 C 225.289062 62.6875 224.144531 63.984375 222.558594 63.503906 C 221.082031 63.0625 220.023438 62.425781 218.4375 62.644531 C 216.738281 62.886719 215.195312 63.546875 213.457031 63.171875 C 212.109375 62.886719 210.8125 62.25 209.421875 62.160156 C 208.914062 62.136719 208.386719 62.183594 207.902344 62.378906 C 207.285156 62.621094 206.953125 63.128906 206.382812 63.457031 C 205.058594 64.226562 203.273438 62.601562 201.863281 62.492188 C 200.519531 62.378906 199.285156 62.84375 198.226562 63.65625 C 197.894531 63.941406 198.382812 64.402344 198.710938 64.140625 Z M 198.710938 64.140625 " fill-opacity="1" fill-rule="nonzero"/><path fill="#222020" d="M 72.363281 16.148438 C 72.78125 16.148438 72.78125 15.492188 72.363281 15.492188 C 71.945312 15.492188 71.945312 16.148438 72.363281 16.148438 Z M 72.363281 16.148438 " fill-opacity="1" fill-rule="nonzero"/><path fill="#222020" d="M 74.300781 16.65625 C 74.699219 14.699219 77.300781 15.953125 78.246094 16.546875 C 79.328125 17.226562 80.472656 17.84375 81.796875 17.46875 C 83.226562 17.050781 84.199219 15.820312 85.785156 15.734375 C 87.28125 15.667969 88.738281 16.347656 90.148438 16.789062 C 91.359375 17.160156 92.640625 17.425781 93.894531 17.117188 C 95.371094 16.765625 96.628906 15.734375 98.125 15.46875 C 101.082031 14.960938 103.746094 17.359375 106.742188 16.4375 C 107.140625 16.304688 106.984375 15.667969 106.566406 15.796875 C 103.4375 16.789062 100.460938 14.015625 97.289062 15.007812 C 95.65625 15.511719 94.292969 16.65625 92.507812 16.589844 C 90.855469 16.523438 89.355469 15.734375 87.789062 15.335938 C 86.554688 15.027344 85.300781 14.941406 84.109375 15.492188 C 83.425781 15.796875 82.832031 16.304688 82.148438 16.632812 C 81.023438 17.160156 80.078125 16.855469 79.0625 16.28125 C 77.960938 15.644531 77.011719 14.898438 75.667969 15.007812 C 74.722656 15.074219 73.882812 15.554688 73.707031 16.523438 C 73.597656 16.898438 74.238281 17.074219 74.300781 16.65625 Z M 74.300781 16.65625 " fill-opacity="1" fill-rule="nonzero"/><path fill="#222020" d="M 76.308594 145.074219 C 78.929688 143.976562 81.574219 145.933594 84.21875 146.066406 C 85.585938 146.132812 86.910156 145.800781 88.253906 145.539062 C 89.949219 145.207031 91.40625 145.1875 93.035156 145.867188 C 94.027344 146.285156 94.929688 146.550781 95.945312 146.152344 C 96.519531 145.933594 97.003906 145.558594 97.574219 145.363281 C 98.214844 145.140625 98.875 145.097656 99.558594 145.097656 C 101.917969 145.140625 104.277344 145.957031 106.523438 144.898438 C 106.898438 144.722656 106.566406 144.152344 106.191406 144.328125 C 103.789062 145.449219 101.125 144.21875 98.589844 144.484375 C 97.378906 144.613281 96.585938 145.316406 95.460938 145.648438 C 94.117188 146.042969 92.792969 144.898438 91.472656 144.703125 C 88.628906 144.261719 85.941406 145.847656 83.074219 145.273438 C 80.78125 144.8125 78.46875 143.46875 76.132812 144.460938 C 75.757812 144.613281 75.933594 145.25 76.308594 145.074219 Z M 76.308594 145.074219 " fill-opacity="1" fill-rule="nonzero"/><path fill="#efb810" d="M 28.660156 112.679688 C 30.582031 112.679688 32.144531 111.125 32.144531 109.203125 C 32.144531 107.285156 30.582031 105.730469 28.660156 105.730469 C 26.738281 105.730469 25.179688 107.285156 25.179688 109.203125 C 25.179688 111.125 26.738281 112.679688 28.660156 112.679688 Z M 28.660156 112.679688 " fill-opacity="1" fill-rule="nonzero"/><path fill="#efb810" d="M 231.351562 88.792969 C 232.703125 88.792969 233.796875 87.703125 233.796875 86.355469 C 233.796875 85.003906 232.703125 83.914062 231.351562 83.914062 C 230 83.914062 228.90625 85.003906 228.90625 86.355469 C 228.90625 87.703125 230 88.792969 231.351562 88.792969 Z M 231.351562 88.792969 " fill-opacity="1" fill-rule="nonzero"/><path fill="#efb810" d="M 209.335938 3.746094 C 210.332031 3.746094 211.140625 2.9375 211.140625 1.941406 C 211.140625 0.945312 210.332031 0.140625 209.335938 0.140625 C 208.335938 0.140625 207.527344 0.945312 207.527344 1.941406 C 207.527344 2.9375 208.335938 3.746094 209.335938 3.746094 Z M 209.335938 3.746094 " fill-opacity="1" fill-rule="nonzero"/><path fill="#efb810" d="M 129.730469 160.140625 C 130.972656 160.140625 131.976562 159.136719 131.976562 157.898438 C 131.976562 156.660156 130.972656 155.65625 129.730469 155.65625 C 128.488281 155.65625 127.484375 156.660156 127.484375 157.898438 C 127.484375 159.136719 128.488281 160.140625 129.730469 160.140625 Z M 129.730469 160.140625 " fill-opacity="1" fill-rule="nonzero"/><path fill="#efb810" d="M 26.105469 32.734375 C 27.527344 32.734375 28.683594 31.582031 28.683594 30.160156 C 28.683594 28.738281 27.527344 27.585938 26.105469 27.585938 C 24.679688 27.585938 23.523438 28.738281 23.523438 30.160156 C 23.523438 31.582031 24.679688 32.734375 26.105469 32.734375 Z M 26.105469 32.734375 " fill-opacity="1" fill-rule="nonzero"/><path fill="#efb810" d="M 115.007812 123.015625 C 115.824219 123.015625 116.484375 122.355469 116.484375 121.542969 C 116.484375 120.730469 115.824219 120.070312 115.007812 120.070312 C 114.191406 120.070312 113.53125 120.730469 113.53125 121.542969 C 113.53125 122.355469 114.191406 123.015625 115.007812 123.015625 Z M 115.007812 123.015625 " fill-opacity="1" fill-rule="nonzero"/><path fill="#efb810" d="M 254.382812 135.554688 C 255.621094 135.554688 256.628906 134.546875 256.628906 133.308594 C 256.628906 132.070312 255.621094 131.066406 254.382812 131.066406 C 253.140625 131.066406 252.132812 132.070312 252.132812 133.308594 C 252.132812 134.546875 253.140625 135.554688 254.382812 135.554688 Z M 254.382812 135.554688 " fill-opacity="1" fill-rule="nonzero"/><path fill="#efb810" d="M 9.355469 172.632812 C 10.28125 172.632812 11.03125 171.886719 11.03125 170.960938 C 11.03125 170.039062 10.28125 169.292969 9.355469 169.292969 C 8.429688 169.292969 7.679688 170.039062 7.679688 170.960938 C 7.679688 171.886719 8.429688 172.632812 9.355469 172.632812 Z M 9.355469 172.632812 " fill-opacity="1" fill-rule="nonzero"/><path fill="#ffffff" d="M 77.851562 42.742188 C 75.933594 46.632812 73.992188 50.527344 72.078125 54.417969 C 80.011719 65.042969 87.945312 75.644531 95.878906 86.265625 C 97.929688 83.164062 99.957031 79.996094 102.003906 76.808594 C 106.832031 69.242188 111.4375 61.765625 115.84375 54.351562 C 114.347656 50.546875 112.824219 46.722656 111.328125 42.917969 C 110.359375 42.410156 109.390625 41.925781 108.417969 41.421875 C 99.03125 41.441406 89.640625 41.464844 80.273438 41.488281 C 79.4375 41.925781 78.644531 42.34375 77.851562 42.742188 Z M 77.851562 42.742188 " fill-opacity="1" fill-rule="nonzero"/><path fill="#000000" d="M 72.339844 54.59375 C 74.015625 50.921875 75.734375 47.269531 77.5 43.640625 C 77.675781 43.269531 77.125 42.917969 76.925781 43.3125 C 75.164062 46.941406 73.441406 50.59375 71.769531 54.265625 C 71.59375 54.640625 72.164062 54.992188 72.339844 54.59375 Z M 72.339844 54.59375 " fill-opacity="1" fill-rule="nonzero"/><path fill="#000000" d="M 71.898438 54.992188 C 79.65625 65.613281 87.570312 76.105469 95.636719 86.507812 C 95.902344 86.835938 96.363281 86.375 96.097656 86.046875 C 88.078125 75.6875 80.210938 65.238281 72.472656 54.660156 C 72.230469 54.332031 71.65625 54.660156 71.898438 54.992188 Z M 71.898438 54.992188 " fill-opacity="1" fill-rule="nonzero"/><path fill="#000000" d="M 77.652344 43.269531 C 78.578125 42.785156 79.480469 42.277344 80.40625 41.792969 C 80.78125 41.597656 80.453125 41.023438 80.078125 41.222656 C 79.152344 41.707031 78.246094 42.210938 77.320312 42.695312 C 76.925781 42.917969 77.277344 43.464844 77.652344 43.269531 Z M 77.652344 43.269531 " fill-opacity="1" fill-rule="nonzero"/><path fill="#000000" d="M 80.957031 41.839844 C 87.835938 41.839844 94.730469 41.839844 101.609375 41.839844 C 102.027344 41.839844 102.027344 41.179688 101.609375 41.179688 C 94.730469 41.179688 87.835938 41.179688 80.957031 41.179688 C 80.539062 41.179688 80.539062 41.839844 80.957031 41.839844 Z M 80.957031 41.839844 " fill-opacity="1" fill-rule="nonzero"/><path fill="#000000" d="M 116.15625 54.285156 C 114.765625 50.613281 113.332031 46.984375 111.855469 43.335938 C 111.703125 42.9375 111.0625 43.113281 111.21875 43.511719 C 112.695312 47.140625 114.125 50.789062 115.515625 54.464844 C 115.667969 54.859375 116.308594 54.683594 116.15625 54.285156 Z M 116.15625 54.285156 " fill-opacity="1" fill-rule="nonzero"/><path fill="#000000" d="M 115.425781 54.617188 C 108.96875 65.175781 102.378906 75.664062 95.65625 86.066406 C 95.414062 86.417969 95.988281 86.75 96.230469 86.398438 C 102.953125 75.996094 109.542969 65.527344 116 54.945312 C 116.21875 54.59375 115.648438 54.242188 115.425781 54.617188 Z M 115.425781 54.617188 " fill-opacity="1" fill-rule="nonzero"/><path fill="#000000" d="M 111.460938 42.652344 C 110.6875 42.167969 109.917969 41.664062 109.144531 41.179688 C 108.792969 40.960938 108.460938 41.507812 108.816406 41.75 C 109.585938 42.234375 110.359375 42.742188 111.128906 43.222656 C 111.503906 43.464844 111.835938 42.894531 111.460938 42.652344 Z M 111.460938 42.652344 " fill-opacity="1" fill-rule="nonzero"/><path fill="#000000" d="M 108.394531 41.113281 C 102.644531 41.113281 96.890625 41.113281 91.160156 41.113281 C 90.742188 41.113281 90.742188 41.773438 91.160156 41.773438 C 96.914062 41.773438 102.667969 41.773438 108.394531 41.773438 C 108.816406 41.773438 108.816406 41.113281 108.394531 41.113281 Z M 108.394531 41.113281 " fill-opacity="1" fill-rule="nonzero"/><path fill="#000000" d="M 72.605469 54.925781 C 76.550781 53.230469 80.496094 51.539062 84.441406 49.84375 C 84.835938 49.667969 84.484375 49.117188 84.109375 49.273438 C 80.164062 50.964844 76.21875 52.660156 72.273438 54.351562 C 71.902344 54.527344 72.230469 55.101562 72.605469 54.925781 Z M 72.605469 54.925781 " fill-opacity="1" fill-rule="nonzero"/><path fill="#000000" d="M 77.761719 43.070312 C 80.1875 43.445312 82.566406 43.972656 84.925781 44.632812 C 85.34375 44.742188 85.519531 44.105469 85.101562 43.992188 C 82.742188 43.3125 80.363281 42.804688 77.9375 42.433594 C 77.519531 42.367188 77.320312 43.003906 77.761719 43.070312 Z M 77.761719 43.070312 " fill-opacity="1" fill-rule="nonzero"/><path fill="#000000" d="M 84.75 44.523438 C 85.277344 46.171875 85.742188 47.820312 86.136719 49.515625 C 86.226562 49.933594 86.863281 49.757812 86.777344 49.339844 C 86.378906 47.644531 85.917969 45.996094 85.386719 44.347656 C 85.257812 43.949219 84.617188 44.105469 84.75 44.523438 Z M 84.75 44.523438 " fill-opacity="1" fill-rule="nonzero"/><path fill="#000000" d="M 85.761719 44.589844 C 91.667969 44.589844 97.554688 44.589844 103.460938 44.589844 C 103.878906 44.589844 103.878906 43.929688 103.460938 43.929688 C 97.554688 43.929688 91.667969 43.929688 85.761719 43.929688 C 85.34375 43.929688 85.34375 44.589844 85.761719 44.589844 Z M 85.761719 44.589844 " fill-opacity="1" fill-rule="nonzero"/><path fill="#000000" d="M 103.171875 44.71875 C 102.953125 45.929688 102.734375 47.160156 102.511719 48.371094 C 102.445312 48.789062 103.085938 48.964844 103.152344 48.546875 C 103.371094 47.335938 103.59375 46.105469 103.8125 44.894531 C 103.878906 44.476562 103.238281 44.300781 103.171875 44.71875 Z M 103.171875 44.71875 " fill-opacity="1" fill-rule="nonzero"/><path fill="#000000" d="M 86.488281 49.558594 C 91.648438 49.558594 96.804688 49.558594 101.984375 49.558594 C 102.402344 49.558594 102.402344 48.898438 101.984375 48.898438 C 96.828125 48.898438 91.667969 48.898438 86.488281 48.898438 C 86.070312 48.898438 86.070312 49.558594 86.488281 49.558594 Z M 86.488281 49.558594 " fill-opacity="1" fill-rule="nonzero"/><path fill="#000000" d="M 104.097656 44.589844 C 106.5 44.082031 108.882812 43.578125 111.285156 43.070312 C 111.703125 42.984375 111.527344 42.34375 111.105469 42.433594 C 108.707031 42.9375 106.324219 43.445312 103.921875 43.949219 C 103.503906 44.039062 103.679688 44.675781 104.097656 44.589844 Z M 104.097656 44.589844 " fill-opacity="1" fill-rule="nonzero"/><path fill="#000000" d="M 102.996094 49.359375 C 105.222656 49.710938 107.292969 50.964844 109.324219 51.910156 C 111.480469 52.921875 113.621094 53.933594 115.78125 54.945312 C 116.15625 55.121094 116.507812 54.550781 116.109375 54.375 C 113.820312 53.296875 111.546875 52.242188 109.257812 51.164062 C 107.316406 50.242188 105.3125 49.074219 103.171875 48.722656 C 102.753906 48.65625 102.578125 49.292969 102.996094 49.359375 Z M 102.996094 49.359375 " fill-opacity="1" fill-rule="nonzero"/><path fill="#000000" d="M 86.6875 50.570312 C 89.554688 62.359375 92.394531 74.167969 95.261719 85.957031 C 95.371094 86.375 95.988281 86.199219 95.902344 85.78125 C 93.035156 73.992188 90.191406 62.183594 87.328125 50.394531 C 87.21875 49.976562 86.578125 50.152344 86.6875 50.570312 Z M 86.6875 50.570312 " fill-opacity="1" fill-rule="nonzero"/><path fill="#000000" d="M 102.070312 51.363281 C 99.382812 62.710938 97.15625 74.191406 95.4375 85.738281 C 95.371094 86.15625 96.011719 86.332031 96.078125 85.914062 C 97.796875 74.367188 100.023438 62.910156 102.710938 51.539062 C 102.820312 51.121094 102.179688 50.945312 102.070312 51.363281 Z M 102.070312 51.363281 " fill-opacity="1" fill-rule="nonzero"/><path fill="#000000" d="M 102.292969 29.347656 C 103.285156 26.816406 103.835938 24.15625 103.921875 21.429688 C 103.945312 21.011719 103.285156 21.011719 103.261719 21.429688 C 103.171875 24.089844 102.621094 26.683594 101.652344 29.171875 C 101.5 29.566406 102.136719 29.71875 102.292969 29.347656 Z M 102.292969 29.347656 " fill-opacity="1" fill-rule="nonzero"/><path fill="#000000" d="M 106.808594 29.785156 C 108.925781 27.390625 111.304688 25.277344 113.972656 23.496094 C 114.324219 23.253906 113.996094 22.683594 113.640625 22.925781 C 110.929688 24.726562 108.484375 26.882812 106.347656 29.324219 C 106.058594 29.632812 106.523438 30.09375 106.808594 29.785156 Z M 106.808594 29.785156 " fill-opacity="1" fill-rule="nonzero"/><path fill="#000000" d="M 111.152344 33.855469 C 113.882812 33.042969 116.703125 32.734375 119.546875 32.953125 C 119.96875 32.976562 119.96875 32.316406 119.546875 32.292969 C 116.640625 32.074219 113.773438 32.382812 110.976562 33.21875 C 110.578125 33.347656 110.734375 33.988281 111.152344 33.855469 Z M 111.152344 33.855469 " fill-opacity="1" fill-rule="nonzero"/><path fill="#222020" d="M 64.714844 18.4375 C 64.980469 22.792969 62.535156 26.949219 58.609375 28.839844 C 58.390625 28.949219 58.414062 29.28125 58.609375 29.414062 C 62.203125 31.566406 63.855469 35.527344 64.804688 39.417969 C 64.914062 39.835938 65.53125 39.660156 65.441406 39.242188 C 64.453125 35.175781 62.6875 31.0625 58.941406 28.839844 C 58.941406 29.039062 58.941406 29.214844 58.941406 29.414062 C 63.0625 27.410156 65.664062 22.992188 65.378906 18.4375 C 65.355469 18.019531 64.695312 18.019531 64.714844 18.4375 Z M 64.714844 18.4375 " fill-opacity="1" fill-rule="nonzero"/><path fill="#222020" d="M 64.957031 18.4375 C 64.671875 23.011719 67.273438 27.433594 71.394531 29.414062 C 71.394531 29.214844 71.394531 29.039062 71.394531 28.839844 C 67.625 31.082031 65.863281 35.195312 64.871094 39.289062 C 64.761719 39.707031 65.398438 39.882812 65.507812 39.464844 C 66.457031 35.546875 68.109375 31.566406 71.722656 29.414062 C 71.921875 29.300781 71.945312 28.949219 71.722656 28.839844 C 67.800781 26.949219 65.332031 22.792969 65.597656 18.4375 C 65.640625 18.019531 64.980469 18.019531 64.957031 18.4375 Z M 64.957031 18.4375 " fill-opacity="1" fill-rule="nonzero"/><path fill="#000000" d="M 172.265625 183.542969 C 173.035156 183.214844 174.09375 182.730469 175.304688 182.046875 C 177.332031 180.925781 178.347656 180.355469 178.964844 179.453125 C 179.757812 178.265625 179.449219 177.625 180.484375 176.4375 C 180.640625 176.242188 181.367188 175.472656 182.316406 175.054688 C 183.945312 174.371094 185.464844 175.183594 188 176.085938 C 190.335938 176.921875 192.167969 177.320312 195.824219 178.132812 C 197.277344 178.460938 199.042969 178.792969 201.597656 179.582031 C 202.324219 179.804688 202.898438 180 203.296875 180.132812 C 203.339844 180.597656 203.363281 181.785156 202.589844 182.859375 C 202.238281 183.34375 201.753906 183.742188 200.980469 184.09375 C 199.195312 184.929688 197.5 184.773438 196.066406 184.707031 C 192.980469 184.578125 194.257812 185.015625 186.988281 185.148438 C 185.398438 185.171875 184.101562 185.171875 183.195312 185.171875 C 182.070312 185.941406 180.949219 186.730469 179.800781 187.546875 C 177.863281 188.953125 176.011719 190.359375 174.25 191.746094 C 173.585938 189.019531 172.925781 186.269531 172.265625 183.542969 Z M 172.265625 183.542969 " fill-opacity="1" fill-rule="nonzero"/><path fill="#ffffff" d="M 163.074219 155.390625 C 161.488281 156.226562 161.3125 156.535156 155.40625 161.550781 C 146.195312 169.355469 145.179688 169.773438 136.828125 177.054688 C 128.828125 184.003906 127.328125 185.742188 125.808594 188.03125 C 122.015625 193.8125 121.179688 198.652344 120.9375 201.007812 C 120.605469 204.171875 120.164062 208.570312 122.964844 212.046875 C 124.726562 214.222656 127.019531 215.125 127.789062 215.410156 C 130.105469 216.292969 132 216.179688 135.414062 215.9375 C 139.957031 215.609375 143.417969 214.730469 144.78125 214.355469 C 146.28125 213.9375 149.761719 212.902344 154.125 210.75 C 158.226562 208.726562 159.988281 207.230469 165.585938 203.46875 C 168.078125 201.796875 171.757812 199.355469 176.386719 196.539062 C 176.671875 194.34375 176.429688 192.625 176.1875 191.550781 C 175.613281 188.996094 174.445312 187.238281 173.148438 185.300781 C 172.089844 183.71875 171.074219 182.507812 170.371094 181.71875 C 172.023438 180.464844 174.183594 178.660156 176.453125 176.242188 C 177.972656 174.613281 180.375 172.019531 182.382812 168.367188 C 184.847656 163.882812 187.316406 159.351562 185.730469 156.226562 C 183.242188 151.324219 171.382812 151.101562 163.074219 155.390625 Z M 163.074219 155.390625 " fill-opacity="1" fill-rule="nonzero"/><g mask="url(#4618c7cd27)"><g transform="matrix(1, 0, 0, 1, 132, 157)"><g clip-path="url(#3c0c170b33)"><g clip-path="url(#c2c44dbcc7)"><path fill="#222020" d="M 50.820312 0.789062 C 49.566406 3.691406 47.492188 7.804688 44.1875 12.203125 C 39.382812 18.558594 34.535156 22.078125 27.21875 27.289062 C 6.523438 42.027344 0.96875 45.390625 1.585938 46.800781 C 2.425781 48.710938 14.082031 45.28125 15.78125 44.773438 C 28.164062 41.125 37.289062 35.496094 42.996094 31.382812 C 41.542969 29.160156 40.089844 26.9375 38.632812 24.738281 C 40.417969 23.464844 42.886719 21.441406 45.203125 18.425781 C 46.480469 16.777344 48.417969 14.226562 49.675781 10.378906 C 50.953125 6.550781 51 3.140625 50.820312 0.789062 Z M 50.820312 0.789062 " fill-opacity="1" fill-rule="nonzero"/></g></g></g></g><path fill="#000000" d="M 162.988281 155.371094 C 155.140625 161.199219 147.492188 167.3125 140.132812 173.710938 C 136.605469 176.769531 133.078125 179.824219 129.773438 183.101562 C 126.84375 186.007812 124.109375 189.21875 122.457031 193.042969 C 120.738281 197.003906 120.253906 201.578125 120.671875 205.867188 C 121.023438 209.40625 122.324219 212.96875 125.566406 214.816406 C 128.960938 216.730469 133.234375 216.535156 136.980469 216.136719 C 141.585938 215.675781 146.128906 214.554688 150.425781 212.816406 C 160.011719 208.921875 167.527344 201.644531 176.585938 196.828125 C 176.960938 196.628906 176.628906 196.058594 176.253906 196.253906 C 168.695312 200.28125 162.257812 206.085938 154.679688 210.109375 C 150.710938 212.222656 146.4375 213.761719 142.027344 214.707031 C 137.949219 215.566406 133.367188 216.226562 129.222656 215.433594 C 127.285156 215.058594 125.410156 214.269531 124.023438 212.816406 C 122.675781 211.386719 121.949219 209.519531 121.574219 207.605469 C 120.761719 203.445312 121.132812 198.742188 122.5 194.738281 C 123.867188 190.734375 126.535156 187.371094 129.441406 184.378906 C 132.460938 181.277344 135.769531 178.417969 139.007812 175.582031 C 146.832031 168.71875 154.941406 162.164062 163.316406 155.964844 C 163.648438 155.699219 163.339844 155.128906 162.988281 155.371094 Z M 162.988281 155.371094 " fill-opacity="1" fill-rule="nonzero"/><path fill="#000000" d="M 141.386719 200.457031 C 148.617188 197.664062 155.164062 193.484375 161.378906 188.910156 C 164.441406 186.664062 167.460938 184.335938 170.457031 182.003906 C 173.410156 179.695312 176.230469 177.253906 178.523438 174.285156 C 178.789062 173.953125 178.214844 173.625 177.949219 173.953125 C 175.613281 176.988281 172.683594 179.429688 169.6875 181.785156 C 166.734375 184.09375 163.757812 186.378906 160.714844 188.601562 C 154.632812 193.042969 148.265625 197.136719 141.210938 199.839844 C 140.816406 199.972656 140.992188 200.609375 141.386719 200.457031 Z M 141.386719 200.457031 " fill-opacity="1" fill-rule="nonzero"/><path fill="#000000" d="M 170.128906 181.9375 C 174.378906 185.5 176.628906 191.019531 176.035156 196.539062 C 175.988281 196.960938 176.652344 196.960938 176.695312 196.539062 C 177.289062 190.867188 174.953125 185.148438 170.589844 181.476562 C 170.28125 181.1875 169.820312 181.652344 170.128906 181.9375 Z M 170.128906 181.9375 " fill-opacity="1" fill-rule="nonzero"/><path fill="#000000" d="M 175.988281 190.40625 C 177.246094 190.03125 178.347656 188.976562 179.40625 188.226562 C 180.726562 187.304688 182.027344 186.378906 183.351562 185.457031 C 183.703125 185.214844 183.371094 184.644531 183.019531 184.882812 C 181.828125 185.71875 180.617188 186.578125 179.429688 187.414062 C 178.324219 188.183594 177.113281 189.371094 175.8125 189.765625 C 175.394531 189.878906 175.570312 190.515625 175.988281 190.40625 Z M 175.988281 190.40625 " fill-opacity="1" fill-rule="nonzero"/><path fill="#000000" d="M 172.351562 183.851562 C 174.84375 182.816406 177.136719 181.410156 179.207031 179.671875 C 179.539062 179.386719 179.050781 178.925781 178.746094 179.210938 C 176.78125 180.882812 174.578125 182.222656 172.199219 183.214844 C 171.800781 183.390625 171.980469 184.027344 172.351562 183.851562 Z M 172.351562 183.851562 " fill-opacity="1" fill-rule="nonzero"/><path fill="#000000" d="M 178.964844 179.386719 C 179.382812 179.386719 179.382812 178.726562 178.964844 178.726562 C 178.546875 178.726562 178.546875 179.386719 178.964844 179.386719 Z M 178.964844 179.386719 " fill-opacity="1" fill-rule="nonzero"/><path fill="#000000" d="M 179.757812 178.59375 C 180.132812 177.714844 180.527344 176.746094 181.234375 176.066406 C 182.183594 175.140625 183.328125 175.273438 184.539062 175.535156 C 186.789062 176.042969 188.992188 176.746094 191.195312 177.382812 C 193.246094 177.957031 195.296875 178.460938 197.410156 178.703125 C 198.644531 178.835938 199.679688 178.992188 200.78125 179.539062 C 201.597656 179.9375 202.304688 180.332031 203.207031 180.421875 C 203.625 180.464844 203.625 179.804688 203.207031 179.761719 C 201.996094 179.648438 201.046875 178.8125 199.902344 178.441406 C 198.753906 178.066406 197.476562 178.089844 196.285156 177.890625 C 193.6875 177.472656 191.152344 176.679688 188.640625 175.933594 C 187.40625 175.582031 186.171875 175.230469 184.914062 174.945312 C 183.988281 174.746094 183.019531 174.503906 182.09375 174.789062 C 180.484375 175.273438 179.714844 176.988281 179.117188 178.417969 C 178.964844 178.8125 179.605469 178.992188 179.757812 178.59375 Z M 179.757812 178.59375 " fill-opacity="1" fill-rule="nonzero"/><path fill="#000000" d="M 183.261719 185.941406 C 187.976562 185.234375 192.652344 185.125 197.410156 185.039062 C 199.0625 185.015625 200.828125 184.820312 202.148438 183.742188 C 203.273438 182.816406 203.914062 181.476562 203.605469 180.046875 C 203.515625 179.628906 202.875 179.804688 202.964844 180.222656 C 203.382812 182.222656 201.578125 183.695312 199.792969 184.136719 C 197.960938 184.578125 195.980469 184.355469 194.105469 184.402344 C 190.402344 184.46875 186.746094 184.773438 183.085938 185.324219 C 182.667969 185.367188 182.867188 186.007812 183.261719 185.941406 Z M 183.261719 185.941406 " fill-opacity="1" fill-rule="nonzero"/><path fill="#000000" d="M 199.988281 181.5625 C 201.621094 180.398438 203.273438 179.230469 204.90625 178.066406 C 205.015625 177.320312 205.367188 175.691406 206.710938 174.304688 C 207.109375 173.886719 208.035156 172.917969 209.421875 172.65625 C 210.878906 172.371094 212 173.03125 213.257812 173.601562 C 215.285156 174.527344 217.246094 174.878906 221.125 175.625 C 224.1875 176.195312 225.730469 176.484375 227.933594 176.371094 C 230.933594 176.195312 233.070312 175.40625 234.347656 176.660156 C 234.480469 176.789062 235.03125 177.382812 234.988281 178.109375 C 234.921875 179.035156 233.929688 179.628906 233.136719 180.089844 C 229.675781 182.070312 227.738281 182.640625 227.738281 182.640625 C 222.84375 184.070312 220.375 184.796875 218.257812 184.972656 C 216.539062 185.105469 214.09375 185.171875 211.140625 184.707031 C 210.28125 187.65625 207.679688 189.546875 205.234375 189.394531 C 202.082031 189.195312 199.175781 185.65625 199.988281 181.5625 Z M 199.988281 181.5625 " fill-opacity="1" fill-rule="nonzero"/><path fill="#ffffff" d="M 168.34375 162.121094 C 168.828125 160.648438 169.730469 158.777344 171.425781 158.164062 C 172.53125 157.765625 173.542969 158.03125 173.875 158.117188 C 175.921875 158.625 180.132812 157.898438 188.53125 156.46875 C 192.695312 155.765625 197.960938 154.730469 204.023438 153.191406 C 204.042969 154.3125 204.023438 155.785156 203.957031 157.503906 C 203.800781 161.351562 203.40625 164.253906 203.316406 164.9375 C 202.941406 167.664062 202.28125 172.195312 200.277344 177.691406 C 199.769531 179.101562 199.261719 180.265625 198.910156 181.058594 C 199.769531 181.453125 200.695312 181.980469 201.597656 182.730469 C 205.324219 185.699219 206.402344 189.898438 206.753906 191.679688 C 206.226562 192.316406 205.433594 193.261719 204.417969 194.339844 C 200.320312 198.695312 196.53125 201.136719 189.300781 205.601562 C 184.847656 208.351562 181.585938 210.351562 176.363281 213.433594 C 170.015625 217.171875 164.882812 220.074219 158.492188 221.898438 C 156.902344 222.359375 154.390625 222.976562 151.21875 222.648438 C 149.675781 222.492188 146.898438 222.207031 144.230469 220.273438 C 140.816406 217.808594 139.734375 214.203125 139.292969 212.617188 C 138.304688 209.078125 138.679688 205.757812 139.605469 202.304688 C 140.242188 199.882812 142.558594 191.855469 150.601562 182.816406 C 152.210938 181.011719 156.792969 176.945312 165.917969 168.808594 C 168.121094 166.847656 169.929688 165.246094 171.140625 164.1875 C 170.214844 163.484375 169.289062 162.800781 168.34375 162.121094 Z M 168.34375 162.121094 " fill-opacity="1" fill-rule="nonzero"/><g mask="url(#983cfb79e2)"><g transform="matrix(1, 0, 0, 1, 160, 152)"><g clip-path="url(#caf74ec918)"><path fill="#222020" d="M 38.316406 4.027344 C 37.808594 5.964844 36.992188 8.757812 35.757812 12.035156 C 24.496094 41.8125 -0.671875 54.679688 1.378906 57.890625 C 2.875 60.265625 17.246094 54.351562 27.605469 48.125 C 35.363281 43.464844 41.136719 38.46875 44.992188 34.710938 C 44.375 33.808594 43.429688 32.578125 41.996094 31.410156 C 40.605469 30.289062 39.285156 29.609375 38.292969 29.1875 C 38.976562 28.199219 39.878906 26.703125 40.652344 24.789062 C 41.15625 23.558594 41.597656 22.238281 42.171875 19.554688 C 43.097656 15.3125 43.472656 11.945312 43.582031 10.890625 C 43.847656 8.363281 44.089844 5.085938 44.042969 1.214844 C 42.128906 2.136719 40.230469 3.082031 38.316406 4.027344 Z M 38.316406 4.027344 " fill-opacity="1" fill-rule="nonzero"/></g></g></g><path fill="#000000" d="M 203.714844 153.191406 C 203.734375 157.347656 203.472656 161.503906 202.898438 165.640625 C 202.371094 169.355469 201.707031 173.183594 200.34375 176.703125 C 198.867188 180.507812 196.332031 183.277344 193.269531 185.894531 C 190.136719 188.558594 186.988281 191.175781 183.835938 193.792969 C 180.222656 196.804688 176.585938 199.796875 172.96875 202.808594 C 172.640625 203.074219 173.101562 203.535156 173.433594 203.269531 C 180.066406 197.773438 186.699219 192.296875 193.289062 186.730469 C 196.199219 184.269531 198.84375 181.71875 200.429688 178.175781 C 201.972656 174.746094 202.722656 170.984375 203.316406 167.289062 C 204.066406 162.625 204.417969 157.921875 204.375 153.191406 C 204.375 152.753906 203.714844 152.753906 203.714844 153.191406 Z M 203.714844 153.191406 " fill-opacity="1" fill-rule="nonzero"/><path fill="#000000" d="M 168.714844 162.738281 C 169.621094 163.21875 170.523438 163.703125 171.449219 164.1875 C 171.824219 164.386719 172.15625 163.816406 171.78125 163.617188 C 170.875 163.132812 169.972656 162.648438 169.046875 162.164062 C 168.671875 161.96875 168.34375 162.539062 168.714844 162.738281 Z M 168.714844 162.738281 " fill-opacity="1" fill-rule="nonzero"/><path fill="#000000" d="M 171.449219 163.925781 C 163.605469 170.300781 155.363281 176.613281 148.816406 184.355469 C 143.175781 191.019531 138.523438 199.464844 138.546875 208.417969 C 138.546875 212.355469 139.625 216.46875 142.535156 219.261719 C 145.445312 222.074219 149.652344 223.175781 153.621094 222.976562 C 158.46875 222.734375 163.074219 220.820312 167.394531 218.710938 C 172.023438 216.445312 176.410156 213.761719 180.816406 211.101562 C 189.894531 205.601562 200.035156 200.476562 206.84375 192.097656 C 207.109375 191.769531 206.644531 191.308594 206.382812 191.636719 C 200.671875 198.675781 192.652344 203.183594 185.003906 207.800781 C 180.792969 210.351562 176.628906 212.949219 172.332031 215.367188 C 168.121094 217.742188 163.734375 220.007812 159.085938 221.351562 C 154.722656 222.601562 149.851562 222.867188 145.730469 220.691406 C 141.761719 218.621094 139.734375 214.621094 139.316406 210.265625 C 138.5 201.46875 142.929688 192.714844 148.285156 186.027344 C 154.964844 177.691406 163.691406 171.050781 171.933594 164.363281 C 172.242188 164.121094 171.78125 163.660156 171.449219 163.925781 Z M 171.449219 163.925781 " fill-opacity="1" fill-rule="nonzero"/><path fill="#000000" d="M 198.753906 181.320312 C 202.898438 183.300781 205.785156 187.214844 206.46875 191.746094 C 206.535156 192.164062 207.175781 191.988281 207.109375 191.570312 C 206.425781 186.886719 203.382812 182.773438 199.109375 180.75 C 198.710938 180.574219 198.382812 181.144531 198.753906 181.320312 Z M 198.753906 181.320312 " fill-opacity="1" fill-rule="nonzero"/><path fill="#000000" d="M 200.078125 181.894531 C 200.960938 181.542969 201.664062 180.949219 202.414062 180.375 C 203.296875 179.695312 204.199219 179.035156 205.082031 178.351562 C 205.410156 178.089844 205.082031 177.515625 204.75 177.78125 C 203.957031 178.375 203.164062 178.96875 202.371094 179.582031 C 201.597656 180.179688 200.828125 180.902344 199.902344 181.253906 C 199.527344 181.410156 199.679688 182.046875 200.078125 181.894531 Z M 200.078125 181.894531 " fill-opacity="1" fill-rule="nonzero"/><path fill="#000000" d="M 205.410156 178.089844 C 205.851562 176.789062 206.382812 175.515625 207.085938 174.328125 C 208.054688 172.699219 209.511719 172.875 211.140625 173.292969 C 213.675781 173.929688 216.101562 174.898438 218.65625 175.472656 C 223.613281 176.570312 228.707031 176.945312 233.773438 176.613281 C 234.195312 176.59375 234.195312 175.933594 233.773438 175.957031 C 227.800781 176.351562 221.785156 175.734375 216.011719 174.105469 C 214.625 173.710938 213.28125 173.207031 211.890625 172.808594 C 210.832031 172.5 209.578125 172.148438 208.472656 172.371094 C 207.484375 172.566406 206.910156 173.316406 206.425781 174.152344 C 205.742188 175.339844 205.210938 176.613281 204.773438 177.910156 C 204.640625 178.308594 205.277344 178.484375 205.410156 178.089844 Z M 205.410156 178.089844 " fill-opacity="1" fill-rule="nonzero"/><path fill="#000000" d="M 206.359375 188.710938 C 208.011719 187.457031 209.644531 186.203125 211.296875 184.949219 C 211.625 184.6875 211.296875 184.113281 210.964844 184.378906 C 209.3125 185.632812 207.679688 186.886719 206.027344 188.140625 C 205.699219 188.402344 206.027344 188.976562 206.359375 188.710938 Z M 206.359375 188.710938 " fill-opacity="1" fill-rule="nonzero"/><path fill="#000000" d="M 211.273438 184.796875 C 216.652344 185.960938 222.136719 185.082031 227.230469 183.148438 C 229.542969 182.265625 232.1875 181.277344 234.171875 179.78125 C 235.558594 178.75 235.757812 176.769531 233.929688 176.066406 C 233.53125 175.910156 233.355469 176.546875 233.753906 176.703125 C 234.746094 177.078125 234.855469 178.152344 234.171875 178.902344 C 233.839844 179.277344 233.378906 179.519531 232.9375 179.78125 C 232.035156 180.289062 231.109375 180.75 230.183594 181.1875 C 228.222656 182.113281 226.195312 182.90625 224.101562 183.519531 C 219.980469 184.707031 215.660156 185.105469 211.425781 184.179688 C 211.03125 184.070312 210.855469 184.707031 211.273438 184.796875 Z M 211.273438 184.796875 " fill-opacity="1" fill-rule="nonzero"/><path fill="#efb810" d="M 153.839844 89.808594 C 157.191406 87.035156 162.195312 83.691406 168.871094 81.710938 C 172 80.789062 175.921875 79.644531 181.125 80.085938 C 189.101562 80.765625 194.589844 84.683594 196.53125 86.113281 C 199.570312 88.332031 201.640625 90.6875 202.921875 92.335938 C 203.164062 107.753906 203.492188 123.191406 203.914062 138.609375 C 204.042969 143.359375 204.175781 148.132812 204.332031 152.882812 C 201.203125 154.820312 196.816406 156.996094 191.261719 158.273438 C 178.257812 161.242188 167.4375 157.28125 163.054688 155.371094 C 163.03125 151.476562 162.789062 145.625 161.597656 138.609375 C 159.660156 127.085938 156.640625 122.445312 154.746094 112.527344 C 153.796875 107.402344 152.894531 99.703125 153.839844 89.808594 Z M 153.839844 89.808594 " fill-opacity="1" fill-rule="nonzero"/><path fill="#ffffff" d="M 193.6875 93.613281 C 192.605469 94.800781 192.410156 96.140625 192.472656 101.285156 C 192.519531 106.699219 192.804688 110.390625 192.980469 114.679688 C 193.113281 117.78125 193.222656 120.246094 193.15625 123.457031 C 193.089844 127.503906 192.828125 130.824219 192.585938 133.046875 C 190.425781 135.464844 188.507812 137.355469 187.074219 138.71875 C 183.859375 141.777344 180.351562 145.074219 175.175781 148.175781 C 173.125 149.386719 171.359375 150.265625 170.171875 150.816406 C 169.089844 150.640625 167.878906 150.375 166.558594 150.046875 C 163.425781 149.253906 162.128906 148.550781 159.769531 148.550781 C 159.0625 148.550781 156.839844 148.550781 156.617188 149.34375 C 156.417969 150.003906 157.652344 151.035156 158.621094 151.542969 C 159.527344 152.003906 159.921875 151.871094 160.828125 152.289062 C 161.839844 152.773438 162.5 153.476562 162.898438 154.003906 C 162.480469 154.597656 161.839844 155.5 161.136719 156.667969 C 160.320312 158.03125 160.144531 158.558594 159.195312 160.183594 C 158.203125 161.902344 157.699219 162.757812 157.257812 163.199219 C 156.574219 163.835938 156.15625 163.96875 153.089844 165.332031 C 150.050781 166.695312 149.519531 167.003906 149.519531 167.378906 C 149.519531 167.75 150.117188 167.839844 152.472656 168.851562 C 154.390625 169.664062 154.566406 169.839844 155.558594 170.125 C 156.792969 170.480469 157.542969 170.699219 158.445312 170.5 C 159.878906 170.214844 160.804688 169.136719 161.203125 168.566406 C 161.398438 168.742188 161.882812 169.113281 162.523438 169.136719 C 163.03125 169.136719 163.449219 168.9375 163.78125 168.675781 C 165.167969 167.6875 165.851562 165.859375 167.21875 163.816406 C 167.460938 163.460938 168.320312 162.164062 169.707031 160.714844 C 170.566406 159.789062 171.359375 159.109375 171.933594 158.644531 C 172.707031 158.46875 173.851562 158.207031 175.21875 157.808594 C 180.527344 156.292969 184.363281 154.46875 187.582031 152.929688 C 189.457031 152.027344 191.570312 150.839844 195.78125 148.484375 C 199.4375 146.441406 201.335938 145.296875 203.007812 143.054688 C 203.183594 142.8125 204.089844 141.601562 204.882812 139.820312 C 205.125 139.269531 205.984375 137.3125 206.449219 133.882812 C 206.667969 132.363281 206.667969 131.527344 206.691406 126.777344 C 206.734375 120.730469 206.734375 121.453125 206.734375 120.839844 C 206.710938 111.976562 206.25 112.769531 206.09375 104.628906 C 206.070312 103.859375 206.050781 101.769531 205.410156 99.132812 C 204.726562 96.273438 203.867188 94.996094 203.382812 94.359375 C 202.765625 93.546875 202.015625 92.578125 200.738281 92.027344 C 198.402344 90.996094 195.296875 91.828125 193.6875 93.613281 Z M 193.6875 93.613281 " fill-opacity="1" fill-rule="nonzero"/><g mask="url(#d598663dfc)"><g transform="matrix(1, 0, 0, 1, 153, 91)"><g clip-path="url(#fecca08e7f)"><path fill="#222020" d="M 47.761719 1.007812 C 48.289062 2.742188 48.929688 5.25 49.371094 8.285156 C 49.898438 11.957031 50.097656 16.003906 48.90625 26.585938 C 47.914062 35.425781 47.429688 39.847656 46.152344 43.980469 C 44.324219 49.875 43 54.164062 38.96875 57.550781 C 36.367188 59.726562 33.523438 60.738281 27.816406 62.742188 C 23.628906 64.214844 20.035156 65.09375 17.566406 65.644531 C 15.804688 68.019531 13.183594 71.03125 9.457031 73.890625 C 6.546875 76.136719 3.75 77.675781 1.4375 78.730469 C 1.765625 78.949219 3.132812 79.832031 4.984375 79.589844 C 7.144531 79.300781 8.3125 77.761719 8.511719 77.476562 C 8.929688 77.785156 9.546875 78.113281 10.230469 78.003906 C 11.640625 77.785156 12.390625 75.785156 12.765625 74.882812 C 13.578125 73.011719 15.210938 70.4375 18.867188 67.625 C 21.292969 66.988281 24.574219 66.019531 28.386719 64.566406 C 33.699219 62.523438 37.269531 60.542969 41.105469 58.410156 C 47.253906 54.976562 48.640625 53.570312 49.65625 52.207031 C 51.507812 49.722656 52.277344 47.167969 52.609375 46.046875 C 53.203125 44.046875 53.316406 41.804688 53.535156 37.425781 C 53.691406 34.171875 53.691406 31.664062 53.691406 29.773438 C 53.691406 26.519531 53.625 24.097656 53.558594 22.011719 C 53.46875 18.976562 53.292969 15.410156 52.851562 11.144531 C 52.519531 8.042969 52.277344 6.8125 51.574219 5.425781 C 50.492188 3.226562 48.886719 1.820312 47.761719 1.007812 Z M 47.761719 1.007812 " fill-opacity="1" fill-rule="nonzero"/></g></g></g><path fill="#000000" d="M 193.355469 93.523438 C 192.210938 96.382812 192.078125 99.460938 192.144531 102.519531 C 192.210938 105.882812 192.386719 109.226562 192.539062 112.59375 C 192.847656 119.410156 193.070312 126.25 192.253906 133.046875 C 192.210938 133.464844 192.871094 133.464844 192.914062 133.046875 C 193.707031 126.402344 193.53125 119.695312 193.222656 113.03125 C 193.070312 109.734375 192.894531 106.433594 192.804688 103.113281 C 192.714844 99.921875 192.78125 96.710938 193.996094 93.699219 C 194.148438 93.304688 193.511719 93.128906 193.355469 93.523438 Z M 193.355469 93.523438 " fill-opacity="1" fill-rule="nonzero"/><path fill="#000000" d="M 193.53125 132.472656 C 191.503906 133.597656 189.875 135.222656 188.308594 136.917969 C 186.613281 138.742188 184.914062 140.523438 183.019531 142.152344 C 179.140625 145.515625 174.777344 148.289062 170.105469 150.441406 C 169.707031 150.617188 170.0625 151.191406 170.4375 151.015625 C 174.933594 148.945312 179.140625 146.308594 182.910156 143.117188 C 184.78125 141.558594 186.5 139.839844 188.15625 138.058594 C 189.875 136.191406 191.59375 134.300781 193.839844 133.066406 C 194.238281 132.824219 193.90625 132.253906 193.53125 132.472656 Z M 193.53125 132.472656 " fill-opacity="1" fill-rule="nonzero"/><path fill="#000000" d="M 170.257812 150.484375 C 167.835938 149.980469 165.390625 149.453125 162.964844 148.902344 C 161.753906 148.640625 160.519531 148.308594 159.285156 148.089844 C 158.511719 147.957031 157.699219 147.890625 157.015625 148.332031 C 155.957031 149.011719 155.957031 150.265625 156.902344 151.015625 C 157.585938 151.5625 158.46875 151.804688 159.285156 152.070312 C 160.605469 152.488281 161.730469 153.015625 162.589844 154.136719 C 162.855469 154.46875 163.425781 154.136719 163.164062 153.808594 C 162.390625 152.816406 161.464844 152.113281 160.277344 151.695312 C 159.460938 151.410156 158.558594 151.234375 157.808594 150.816406 C 157.277344 150.53125 156.59375 150.089844 156.992188 149.296875 C 157.367188 148.550781 158.316406 148.617188 158.996094 148.726562 C 160.828125 148.992188 162.65625 149.519531 164.484375 149.9375 C 166.359375 150.355469 168.230469 150.75 170.105469 151.144531 C 170.5 151.210938 170.679688 150.574219 170.257812 150.484375 Z M 170.257812 150.484375 " fill-opacity="1" fill-rule="nonzero"/><path fill="#000000" d="M 162.0625 154.246094 C 161.089844 156.027344 160.097656 157.789062 159.128906 159.570312 C 158.644531 160.425781 158.226562 161.351562 157.652344 162.1875 C 157.058594 163.042969 156.265625 163.484375 155.339844 163.925781 C 153.597656 164.738281 151.726562 165.398438 150.050781 166.34375 C 149.300781 166.785156 148.816406 167.574219 149.453125 168.34375 C 150.25 169.292969 151.8125 168.917969 152.871094 168.742188 C 154.324219 168.5 155.714844 168.015625 157.035156 167.398438 C 159.792969 166.078125 162.128906 164.011719 163.800781 161.460938 C 164.042969 161.109375 163.472656 160.78125 163.230469 161.132812 C 161.753906 163.417969 159.703125 165.265625 157.300781 166.542969 C 156.15625 167.136719 154.921875 167.621094 153.664062 167.90625 C 152.960938 168.082031 152.210938 168.234375 151.460938 168.257812 C 150.777344 168.300781 150.601562 168.390625 150.269531 167.707031 C 149.851562 167.3125 149.894531 167.046875 150.378906 166.914062 C 150.535156 166.851562 150.667969 166.785156 150.820312 166.71875 C 152.230469 166.058594 153.664062 165.421875 155.074219 164.761719 C 156.175781 164.253906 157.257812 163.816406 158.003906 162.824219 C 158.886719 161.660156 159.503906 160.273438 160.210938 158.996094 C 161.023438 157.523438 161.839844 156.050781 162.632812 154.597656 C 162.832031 154.203125 162.257812 153.875 162.0625 154.246094 Z M 162.0625 154.246094 " fill-opacity="1" fill-rule="nonzero"/><path fill="#000000" d="M 172.132812 159.0625 C 178.015625 157.414062 183.726562 155.214844 189.191406 152.488281 C 191.902344 151.125 194.546875 149.652344 197.125 148.023438 C 199.4375 146.570312 201.886719 145.097656 203.539062 142.875 C 203.78125 142.523438 203.207031 142.195312 202.964844 142.546875 C 201.246094 144.878906 198.558594 146.394531 196.132812 147.890625 C 193.664062 149.410156 191.109375 150.816406 188.507812 152.113281 C 183.195312 154.730469 177.664062 156.84375 171.957031 158.449219 C 171.558594 158.535156 171.734375 159.175781 172.132812 159.0625 Z M 172.132812 159.0625 " fill-opacity="1" fill-rule="nonzero"/><path fill="#000000" d="M 193.796875 94.117188 C 195.625 90.53125 200.320312 91.347656 202.632812 93.898438 C 205.410156 96.976562 205.542969 101.484375 205.851562 105.398438 C 206.511719 113.957031 206.644531 122.578125 206.117188 131.132812 C 205.851562 135.289062 205.234375 139.6875 202.457031 142.988281 C 202.195312 143.316406 202.65625 143.777344 202.921875 143.449219 C 205.410156 140.457031 206.269531 136.675781 206.625 132.890625 C 207.085938 128.054688 207.085938 123.148438 207.042969 118.289062 C 206.996094 113.207031 206.753906 108.105469 206.292969 103.046875 C 205.941406 99.242188 205.257812 95.042969 202.105469 92.511719 C 199.417969 90.355469 194.921875 90.421875 193.203125 93.789062 C 193.027344 94.160156 193.597656 94.492188 193.796875 94.117188 Z M 193.796875 94.117188 " fill-opacity="1" fill-rule="nonzero"/><path fill="#000000" d="M 152.277344 169.113281 C 153.886719 169.839844 155.824219 170.941406 157.652344 170.941406 C 159.417969 170.917969 160.714844 169.46875 161.90625 168.367188 C 165.324219 165.199219 168.738281 162.03125 172.15625 158.886719 C 172.464844 158.601562 172 158.140625 171.691406 158.425781 C 168.804688 161.109375 165.917969 163.769531 163.03125 166.453125 C 161.753906 167.621094 160.429688 169.292969 158.820312 170.015625 C 156.925781 170.875 154.324219 169.335938 152.628906 168.566406 C 152.230469 168.367188 151.902344 168.9375 152.277344 169.113281 Z M 152.277344 169.113281 " fill-opacity="1" fill-rule="nonzero"/><path fill="#000000" d="M 161.246094 168.652344 C 161.972656 170.015625 163.582031 169.46875 164.398438 168.519531 C 166.007812 166.628906 167.261719 164.34375 168.628906 162.296875 C 168.871094 161.945312 168.296875 161.613281 168.054688 161.96875 C 167.195312 163.242188 166.335938 164.519531 165.476562 165.792969 C 164.992188 166.5 162.855469 170.300781 161.816406 168.324219 C 161.621094 167.949219 161.046875 168.28125 161.246094 168.652344 Z M 161.246094 168.652344 " fill-opacity="1" fill-rule="nonzero"/><path fill="#000000" d="M 156.132812 167.574219 C 156.792969 167.925781 157.609375 168.28125 158.335938 167.925781 C 158.710938 167.730469 158.867188 167.421875 159.042969 167.070312 C 159.351562 166.476562 159.660156 166.015625 160.230469 165.640625 C 160.585938 165.398438 160.253906 164.828125 159.902344 165.070312 C 159.371094 165.421875 158.933594 165.859375 158.621094 166.433594 C 158.402344 166.851562 158.269531 167.355469 157.699219 167.398438 C 157.277344 167.445312 156.816406 167.179688 156.464844 167.003906 C 156.109375 166.828125 155.757812 167.378906 156.132812 167.574219 Z M 156.132812 167.574219 " fill-opacity="1" fill-rule="nonzero"/><path fill="#ffffff" d="M 151.613281 41.90625 C 150.84375 43.464844 150.070312 46.082031 149.828125 46.941406 C 149.476562 48.171875 148.683594 51.054688 148.242188 54.878906 C 148 56.992188 147.734375 59.300781 147.957031 62.359375 C 148.066406 63.808594 148.21875 66.097656 149.078125 68.933594 C 149.652344 70.871094 150.492188 73.664062 152.761719 76.523438 C 154.746094 79.007812 157.015625 80.570312 158.820312 81.515625 C 159.96875 81.535156 161.355469 81.472656 162.898438 81.183594 C 165.675781 80.65625 167.835938 79.625 169.289062 78.789062 C 169.488281 79.910156 169.753906 81.097656 170.082031 82.328125 C 170.765625 84.878906 171.601562 87.121094 172.441406 89.058594 C 173.34375 88.90625 174.425781 88.640625 175.570312 88.113281 C 179.207031 86.417969 180.949219 83.296875 181.566406 82 C 181.234375 80.722656 180.96875 79.335938 180.726562 77.90625 C 179.890625 72.5625 180.109375 67.792969 180.640625 63.921875 C 181.101562 64.074219 181.851562 64.273438 182.777344 64.226562 C 184.585938 64.117188 185.820312 63.128906 186.4375 62.601562 C 186.964844 62.160156 189.367188 60.027344 189.277344 56.859375 C 189.257812 56.113281 189.214844 54.285156 187.914062 53.296875 C 186.699219 52.394531 185.070312 52.726562 183.878906 52.96875 C 182.511719 53.253906 181.5 53.824219 180.882812 54.222656 C 181.34375 52.703125 182.316406 48.8125 180.882812 44.28125 C 180.574219 43.3125 178.523438 37.152344 172.484375 34.492188 C 164.289062 30.84375 154.4375 36.253906 151.613281 41.90625 Z M 151.613281 41.90625 " fill-opacity="1" fill-rule="nonzero"/><g mask="url(#07521548db)"><g transform="matrix(1, 0, 0, 1, 160, 40)"><g clip-path="url(#d55dc930ac)"><g clip-path="url(#6c7432965d)"><path fill="#222020" d="M 16.519531 2.035156 C 16.695312 4.082031 16.828125 7.050781 16.519531 10.570312 C 15.570312 21.238281 11.339844 28.648438 10.238281 30.496094 C 8.5625 33.3125 5.699219 37.402344 1.113281 41.425781 C 2.480469 41.25 4.042969 40.941406 5.71875 40.347656 C 10.324219 38.722656 13.410156 35.929688 15.085938 34.101562 C 15.21875 36.542969 15.636719 39.511719 16.628906 42.769531 C 17.070312 44.15625 17.554688 45.429688 18.0625 46.574219 C 19.230469 45.054688 20.375 43.539062 21.542969 42 C 21.300781 40.570312 21.082031 39.050781 20.925781 37.492188 C 20.417969 32.761719 20.417969 28.40625 20.683594 24.535156 C 21.675781 24.558594 23.109375 24.46875 24.628906 23.875 C 31.285156 21.238281 35.074219 10.746094 31.484375 5.027344 C 31.328125 4.785156 30.535156 3.554688 28.902344 2.453125 C 23.859375 -0.933594 17.445312 1.640625 16.519531 2.035156 Z M 16.519531 2.035156 " fill-opacity="1" fill-rule="nonzero"/></g></g></g></g><path fill="#efb810" d="M 150.007812 46.28125 C 149.566406 44.765625 148.949219 41.859375 149.585938 38.296875 C 149.785156 37.199219 150.46875 33.65625 152.894531 30.863281 C 156.441406 26.796875 160.894531 27.566406 166.667969 25.496094 C 170.324219 24.199219 175.351562 21.472656 180.441406 15.050781 C 179.976562 17.425781 179.515625 19.824219 179.050781 22.199219 C 179.847656 22.417969 182.511719 22.992188 185.246094 21.648438 C 189.785156 19.425781 190.183594 14.0625 190.203125 13.820312 C 190.753906 15.050781 191.746094 17.777344 191.304688 21.253906 C 190.996094 23.628906 190.136719 25.410156 189.519531 26.488281 C 189.785156 26.773438 191.195312 28.226562 192.828125 28.003906 C 194.808594 27.742188 196.664062 25.035156 196.132812 21.539062 C 196.574219 22.835938 197.101562 24.96875 196.96875 27.585938 C 196.792969 30.777344 195.734375 33.171875 195.03125 34.472656 C 195.207031 34.625 196.332031 35.636719 197.917969 35.4375 C 199.304688 35.261719 200.496094 34.25 200.960938 32.820312 C 200.847656 34.296875 200.585938 36.429688 199.726562 38.871094 C 198.558594 42.167969 197.585938 42.433594 197.101562 44.785156 C 196.332031 48.480469 198.316406 49.734375 197.785156 53.035156 C 197.34375 55.804688 195.539062 57.542969 193.246094 59.761719 C 189.082031 63.789062 184.296875 65.964844 180.289062 67.175781 C 180.464844 65.945312 180.660156 64.710938 180.839844 63.480469 C 181.34375 63.789062 182.226562 64.207031 183.328125 64.164062 C 185.578125 64.074219 186.988281 62.074219 187.738281 60.996094 C 188.597656 59.785156 190.027344 57.71875 189.257812 55.496094 C 188.617188 53.691406 186.921875 52.945312 186.765625 52.878906 C 184.78125 52.042969 182.226562 52.792969 180.574219 54.816406 C 179.648438 51.1875 178.746094 47.578125 177.820312 43.949219 C 174.6875 41.972656 171.582031 40.011719 168.453125 38.035156 C 166.910156 37.746094 162.699219 37.175781 157.984375 39.265625 C 153.222656 41.375 150.800781 44.960938 150.007812 46.28125 Z M 150.007812 46.28125 " fill-opacity="1" fill-rule="nonzero"/><path fill="#000000" d="M 149.675781 46.195312 C 147.800781 53.1875 146.675781 60.621094 148.398438 67.769531 C 149.808594 73.574219 153.378906 80.195312 159.460938 82.085938 C 159.855469 82.21875 160.035156 81.582031 159.636719 81.449219 C 153.53125 79.558594 150.117188 72.671875 148.859375 66.867188 C 147.382812 60.050781 148.507812 53.011719 150.292969 46.371094 C 150.425781 45.972656 149.785156 45.796875 149.675781 46.195312 Z M 149.675781 46.195312 " fill-opacity="1" fill-rule="nonzero"/><path fill="#000000" d="M 159.945312 81.976562 C 170.105469 80.941406 178.589844 73.621094 180.96875 63.679688 C 181.058594 63.261719 180.441406 63.085938 180.332031 63.503906 C 178.015625 73.113281 169.839844 80.304688 159.945312 81.316406 C 159.527344 81.359375 159.503906 82.019531 159.945312 81.976562 Z M 159.945312 81.976562 " fill-opacity="1" fill-rule="nonzero"/><path fill="#000000" d="M 180.398438 63.855469 C 184.9375 66.625 189.367188 60.820312 189.652344 56.75 C 189.808594 54.59375 188.816406 52.945312 186.679688 52.328125 C 184.695312 51.757812 182.535156 52.351562 181.125 53.847656 C 180.839844 54.15625 181.300781 54.617188 181.585938 54.308594 C 182.753906 53.054688 184.519531 52.503906 186.214844 52.878906 C 187.097656 53.078125 188.066406 53.5625 188.574219 54.351562 C 189.125 55.210938 189.058594 56.398438 188.925781 57.34375 C 188.398438 60.753906 184.605469 65.636719 180.726562 63.261719 C 180.375 63.0625 180.023438 63.632812 180.398438 63.855469 Z M 180.398438 63.855469 " fill-opacity="1" fill-rule="nonzero"/><path fill="#000000" d="M 180.351562 63.808594 C 179.492188 69.902344 179.800781 76.082031 181.257812 82.066406 C 181.367188 82.484375 182.007812 82.308594 181.894531 81.890625 C 180.464844 76.015625 180.15625 69.945312 180.992188 63.984375 C 181.035156 63.566406 180.398438 63.390625 180.351562 63.808594 Z M 180.351562 63.808594 " fill-opacity="1" fill-rule="nonzero"/><path fill="#000000" d="M 168.960938 78.875 C 169.640625 82.4375 170.699219 85.890625 172.15625 89.234375 C 172.332031 89.628906 172.902344 89.277344 172.726562 88.90625 C 171.296875 85.628906 170.261719 82.21875 169.597656 78.699219 C 169.511719 78.28125 168.894531 78.457031 168.960938 78.875 Z M 168.960938 78.875 " fill-opacity="1" fill-rule="nonzero"/><path fill="#000000" d="M 172.617188 89.324219 C 176.871094 88.640625 180.464844 85.714844 182.070312 81.734375 C 182.226562 81.339844 181.585938 81.164062 181.433594 81.558594 C 179.914062 85.34375 176.453125 88.046875 172.441406 88.683594 C 172.023438 88.75 172.199219 89.390625 172.617188 89.324219 Z M 172.617188 89.324219 " fill-opacity="1" fill-rule="nonzero"/><path fill="#000000" d="M 169.488281 79.644531 C 170.390625 79.691406 171.007812 79.074219 171.691406 78.546875 C 172.597656 77.84375 173.457031 77.09375 174.25 76.300781 C 175.726562 74.828125 176.914062 73.136719 177.6875 71.199219 C 177.839844 70.804688 177.203125 70.628906 177.046875 71.023438 C 176.363281 72.738281 175.304688 74.257812 174.027344 75.578125 C 173.457031 76.191406 172.839844 76.742188 172.199219 77.292969 C 171.492188 77.886719 170.480469 79.03125 169.488281 78.984375 C 169.070312 78.964844 169.070312 79.625 169.488281 79.644531 Z M 169.488281 79.644531 " fill-opacity="1" fill-rule="nonzero"/><path fill="#000000" d="M 169.53125 79.292969 C 171.40625 78.085938 173.144531 76.699219 174.777344 75.179688 C 175.085938 74.894531 174.621094 74.410156 174.316406 74.71875 C 172.726562 76.214844 171.03125 77.554688 169.203125 78.742188 C 168.828125 78.941406 169.179688 79.515625 169.53125 79.292969 Z M 169.53125 79.292969 " fill-opacity="1" fill-rule="nonzero"/><path fill="#000000" d="M 156.574219 47.46875 C 155.339844 53.078125 154.632812 58.773438 154.480469 64.515625 C 154.480469 64.84375 154.921875 64.953125 155.097656 64.691406 C 155.957031 63.328125 156.816406 61.941406 157.675781 60.578125 C 157.894531 60.226562 157.324219 59.875 157.101562 60.246094 C 156.242188 61.609375 155.382812 62.996094 154.523438 64.359375 C 154.722656 64.425781 154.941406 64.46875 155.140625 64.535156 C 155.296875 58.863281 156 53.210938 157.210938 47.667969 C 157.300781 47.226562 156.660156 47.050781 156.574219 47.46875 Z M 156.574219 47.46875 " fill-opacity="1" fill-rule="nonzero"/><path fill="#000000" d="M 157.457031 72.785156 C 156.925781 71.792969 156.574219 70.738281 156.484375 69.617188 C 156.417969 68.824219 156.59375 65.613281 158.09375 66.890625 C 158.886719 67.570312 158.777344 69.066406 158.800781 70.054688 C 158.800781 70.519531 158.800781 71.003906 158.753906 71.464844 C 158.734375 71.792969 158.6875 72.125 158.621094 72.433594 C 158.050781 72.828125 157.609375 72.804688 157.324219 72.386719 C 157.035156 72.078125 156.550781 72.542969 156.859375 72.851562 C 157.808594 73.816406 159.042969 73.859375 159.304688 72.34375 C 159.503906 71.265625 159.503906 70.121094 159.417969 69.042969 C 159.351562 68.1875 159.351562 66.957031 158.710938 66.296875 C 157.761719 65.328125 156.417969 66.230469 156.042969 67.261719 C 155.363281 69.109375 156.023438 71.441406 156.902344 73.113281 C 157.082031 73.488281 157.652344 73.15625 157.457031 72.785156 Z M 157.457031 72.785156 " fill-opacity="1" fill-rule="nonzero"/><path fill="#000000" d="M 162.015625 52.988281 C 162.679688 56.089844 166.753906 56.332031 167.96875 53.472656 C 168.121094 53.078125 167.484375 52.902344 167.328125 53.296875 C 166.335938 55.628906 163.164062 55.1875 162.65625 52.8125 C 162.566406 52.417969 161.929688 52.570312 162.015625 52.988281 Z M 162.015625 52.988281 " fill-opacity="1" fill-rule="nonzero"/><path fill="#000000" d="M 160.714844 45.359375 C 161.554688 43.488281 163.714844 42.585938 165.699219 43.003906 C 167.746094 43.445312 169.3125 45.027344 170.324219 46.765625 C 170.546875 47.140625 171.121094 46.808594 170.898438 46.433594 C 169.730469 44.433594 167.878906 42.652344 165.5 42.300781 C 163.359375 41.992188 161.070312 43.003906 160.144531 45.003906 C 159.96875 45.421875 160.539062 45.753906 160.714844 45.359375 Z M 160.714844 45.359375 " fill-opacity="1" fill-rule="nonzero"/><path fill="#000000" d="M 147.800781 46.082031 C 148.398438 44.851562 149.433594 43.511719 150.953125 43.53125 C 152.40625 43.554688 153.464844 44.828125 154.191406 45.953125 C 154.414062 46.304688 154.984375 45.972656 154.765625 45.621094 C 153.929688 44.28125 152.671875 42.894531 150.953125 42.871094 C 149.191406 42.851562 147.957031 44.300781 147.25 45.753906 C 147.054688 46.128906 147.625 46.457031 147.800781 46.082031 Z M 147.800781 46.082031 " fill-opacity="1" fill-rule="nonzero"/><path fill="#000000" d="M 151.703125 56.046875 C 152.09375 56.046875 152.40625 54.597656 152.40625 52.8125 C 152.40625 51.027344 152.09375 49.582031 151.703125 49.582031 C 151.3125 49.582031 150.996094 51.027344 150.996094 52.8125 C 150.996094 54.597656 151.3125 56.046875 151.703125 56.046875 Z M 151.703125 56.046875 " fill-opacity="1" fill-rule="nonzero"/><path fill="#ffffff" d="M 153.730469 90.839844 C 153.664062 91.652344 153.574219 92.777344 153.53125 94.074219 C 153.332031 98.515625 153.507812 101.882812 153.574219 102.78125 C 153.753906 105.707031 154.148438 109.535156 155.074219 113.976562 C 154.191406 114.988281 152.871094 116.484375 151.171875 118.246094 C 147.957031 121.609375 146.304688 123.324219 143.660156 125.105469 C 140.707031 127.085938 138.65625 127.703125 137.554688 127.988281 C 136.164062 128.316406 134.84375 128.625 133.234375 128.273438 C 130.613281 127.679688 129.046875 125.742188 128.472656 124.996094 C 127.019531 123.148438 126.6875 121.34375 126.09375 117.824219 C 125.652344 115.253906 125.566406 113.296875 125.433594 109.511719 C 125.367188 107.710938 125.277344 105.511719 125.324219 102.5625 C 125.367188 99.242188 125.542969 95.304688 126.027344 90.90625 C 126.246094 88.925781 126.554688 86.484375 127.042969 83.714844 C 126.667969 83.1875 126.269531 82.660156 125.851562 82.109375 C 125.410156 81.535156 124.992188 80.988281 124.550781 80.4375 C 123.425781 81.382812 122.324219 82.351562 121.199219 83.296875 C 120.914062 83.40625 120.40625 83.582031 119.789062 83.515625 C 118.621094 83.40625 117.9375 82.59375 117.695312 82.328125 C 116.617188 81.097656 116.769531 79.535156 116.816406 79.226562 C 118.335938 77.578125 119.855469 75.949219 121.398438 74.300781 C 121.421875 73.355469 121.554688 72.125 121.929688 70.761719 C 122.214844 69.75 122.566406 68.914062 122.898438 68.210938 C 123.183594 67.636719 123.582031 67 124.089844 66.363281 C 124.992188 65.175781 125.960938 64.339844 126.753906 63.765625 C 126.117188 64.050781 125.960938 64.050781 125.917969 64.007812 C 125.808594 63.832031 126.84375 62.535156 128.296875 62.402344 C 129.113281 62.316406 129.753906 62.621094 130.191406 62.820312 C 130.875 63.152344 131.339844 63.566406 131.625 63.875 C 132.992188 62.710938 134.359375 61.546875 135.726562 60.402344 C 136.210938 60.6875 136.695312 61.015625 137.179688 61.347656 C 138.304688 62.117188 139.316406 62.886719 140.222656 63.632812 C 139.890625 64.050781 139.472656 64.515625 138.941406 64.976562 C 138.0625 65.746094 137.179688 66.207031 136.496094 66.515625 C 136.914062 66.648438 137.664062 66.957031 138.039062 67.679688 C 138.414062 68.386719 138.257812 69.15625 138.039062 70.121094 C 137.882812 70.78125 137.6875 71.308594 137.53125 71.660156 C 137.621094 72.585938 137.664062 73.839844 137.398438 75.246094 C 136.980469 77.554688 136.011719 79.273438 135.351562 80.261719 C 135.328125 81.121094 135.304688 82.460938 135.351562 84.109375 C 135.527344 90.90625 136.519531 94.886719 137.15625 99.902344 C 137.53125 102.761719 137.90625 107.003906 137.796875 112.351562 C 138.304688 112.019531 139.03125 111.492188 139.847656 110.808594 C 141.917969 109.074219 143.242188 107.335938 144.980469 104.785156 C 146.699219 102.296875 147.824219 100.453125 149.34375 97.988281 C 150.292969 96.382812 151.8125 93.941406 153.730469 90.839844 Z M 153.730469 90.839844 " fill-opacity="1" fill-rule="nonzero"/><g mask="url(#84fced6f24)"><g transform="matrix(1, 0, 0, 1, 116, 70)"><g clip-path="url(#efe9f7acb3)"><g clip-path="url(#ddf3fd8d25)"><path fill="#222020" d="M 17.695312 0.761719 C 17.234375 1.773438 16.773438 2.804688 16.308594 3.859375 C 14.964844 7.027344 13.863281 10.0625 12.960938 12.964844 C 12.761719 17.542969 12.648438 21.367188 12.5625 24.140625 C 12.453125 28.339844 12.714844 33.355469 13.203125 43.382812 C 13.398438 47.519531 13.574219 50.027344 15.515625 51.851562 C 17.542969 53.742188 20.363281 53.785156 21.949219 53.785156 C 30.414062 53.765625 36.738281 46.574219 38.480469 44.484375 C 36.121094 48.488281 33.433594 51.105469 31.601562 52.644531 C 29.53125 54.378906 26.863281 56.558594 22.722656 57.636719 C 19.21875 58.558594 17.632812 58.359375 17.210938 58.273438 C 14.191406 57.546875 12.519531 55.039062 11.921875 54.183594 C 10.488281 52.050781 10.027344 49.828125 9.761719 45.054688 C 9.5 40.152344 9.785156 38.851562 9.875 32.101562 C 9.941406 25.65625 9.695312 23.832031 10.183594 19.367188 C 10.46875 16.75 10.820312 14.59375 11.105469 13.140625 C 10.246094 12.242188 9.386719 11.339844 8.527344 10.460938 C 7.800781 11.097656 7.050781 11.710938 6.304688 12.351562 C 5.816406 12.769531 5.3125 13.1875 4.828125 13.582031 C 4.386719 13.625 3.746094 13.605469 3.0625 13.316406 C 1.300781 12.570312 0.199219 10.394531 0.75 9.644531 C 1.101562 9.140625 2.027344 9.535156 3.304688 9.535156 C 5.511719 9.558594 6.988281 8.4375 9.917969 6.324219 C 11.988281 4.808594 14.371094 3.113281 17.695312 0.761719 Z M 17.695312 0.761719 " fill-opacity="1" fill-rule="nonzero"/></g></g></g></g><path fill="#000000" d="M 153.445312 90.664062 C 148.351562 97.679688 144.585938 105.730469 138.148438 111.710938 C 137.839844 111.996094 138.304688 112.460938 138.613281 112.171875 C 145.089844 106.148438 148.882812 98.054688 154.015625 90.996094 C 154.28125 90.664062 153.707031 90.335938 153.445312 90.664062 Z M 153.445312 90.664062 " fill-opacity="1" fill-rule="nonzero"/><path fill="#000000" d="M 134.492188 128.777344 C 143.21875 128.207031 149.476562 120.90625 154.722656 114.703125 C 154.984375 114.375 154.523438 113.910156 154.257812 114.242188 C 149.167969 120.3125 142.996094 127.570312 134.511719 128.140625 C 134.070312 128.140625 134.070312 128.800781 134.492188 128.777344 Z M 134.492188 128.777344 " fill-opacity="1" fill-rule="nonzero"/><path fill="#000000" d="M 130.347656 66.824219 C 130.390625 68.5625 131.539062 70.054688 133.210938 70.539062 C 133.632812 70.648438 133.808594 70.011719 133.390625 69.902344 C 132 69.507812 131.050781 68.253906 131.007812 66.824219 C 130.984375 66.40625 130.324219 66.40625 130.347656 66.824219 Z M 130.347656 66.824219 " fill-opacity="1" fill-rule="nonzero"/><path fill="#000000" d="M 131.03125 66.625 C 131.25 64.710938 134.667969 66.097656 135.59375 66.582031 C 136.496094 67.042969 137.398438 67.503906 137.597656 68.605469 C 137.75 69.441406 137.488281 70.320312 137.269531 71.132812 C 137.15625 71.550781 137.796875 71.726562 137.90625 71.308594 C 138.214844 70.210938 138.546875 68.957031 138.082031 67.878906 C 137.640625 66.78125 136.429688 66.273438 135.4375 65.789062 C 134.425781 65.304688 133.324219 64.953125 132.175781 65.085938 C 131.714844 65.152344 131.117188 65.261719 130.742188 65.570312 C 130.347656 65.878906 130.4375 66.097656 130.371094 66.648438 C 130.324219 67.042969 130.984375 67.042969 131.03125 66.625 Z M 131.03125 66.625 " fill-opacity="1" fill-rule="nonzero"/><path fill="#000000" d="M 137.046875 71.003906 C 136.980469 72.671875 137.355469 74.300781 136.957031 75.972656 C 136.585938 77.511719 135.835938 78.941406 135.085938 80.328125 C 134.886719 80.703125 135.460938 81.03125 135.660156 80.65625 C 136.429688 79.207031 137.203125 77.730469 137.597656 76.148438 C 138.015625 74.433594 137.640625 72.738281 137.707031 71.003906 C 137.730469 70.5625 137.070312 70.5625 137.046875 71.003906 Z M 137.046875 71.003906 " fill-opacity="1" fill-rule="nonzero"/><path fill="#000000" d="M 135.085938 80.347656 C 134.578125 91.941406 137.90625 103.289062 137.378906 114.878906 C 137.355469 115.296875 138.015625 115.296875 138.039062 114.878906 C 138.566406 103.289062 135.238281 91.941406 135.746094 80.347656 C 135.769531 79.929688 135.109375 79.929688 135.085938 80.347656 Z M 135.085938 80.347656 " fill-opacity="1" fill-rule="nonzero"/><path fill="#000000" d="M 124.265625 80.589844 C 124.925781 81.515625 125.628906 82.394531 126.425781 83.207031 C 126.710938 83.515625 127.171875 83.054688 126.886719 82.746094 C 126.136719 81.953125 125.453125 81.140625 124.835938 80.261719 C 124.574219 79.910156 124 80.238281 124.265625 80.589844 Z M 124.265625 80.589844 " fill-opacity="1" fill-rule="nonzero"/><path fill="#000000" d="M 126.800781 83.03125 C 125.542969 90.179688 124.925781 97.4375 124.949219 104.695312 C 124.96875 108.304688 125.144531 111.929688 125.5 115.515625 C 125.785156 118.574219 126.136719 121.785156 127.746094 124.46875 C 129.203125 126.910156 131.757812 128.757812 134.667969 128.691406 C 135.085938 128.667969 135.085938 128.007812 134.667969 128.03125 C 130.589844 128.140625 127.964844 124.511719 127.019531 120.949219 C 125.960938 117.035156 125.875 112.769531 125.71875 108.742188 C 125.386719 100.210938 125.984375 91.632812 127.460938 83.230469 C 127.503906 82.789062 126.863281 82.613281 126.800781 83.03125 Z M 126.800781 83.03125 " fill-opacity="1" fill-rule="nonzero"/><path fill="#000000" d="M 122.632812 73.15625 C 120.5625 74.894531 118.554688 76.71875 116.660156 78.632812 C 116.351562 78.941406 116.835938 79.402344 117.125 79.097656 C 119.042969 77.183594 121.023438 75.355469 123.097656 73.621094 C 123.425781 73.355469 122.964844 72.894531 122.632812 73.15625 Z M 122.632812 73.15625 " fill-opacity="1" fill-rule="nonzero"/><path fill="#000000" d="M 116.460938 79.226562 C 116.132812 81.777344 118.070312 83.933594 120.652344 83.914062 C 121.070312 83.914062 121.070312 83.253906 120.652344 83.253906 C 118.425781 83.273438 116.835938 81.40625 117.125 79.226562 C 117.191406 78.808594 116.527344 78.808594 116.460938 79.226562 Z M 116.460938 79.226562 " fill-opacity="1" fill-rule="nonzero"/><path fill="#000000" d="M 117.078125 79.074219 C 119.394531 79.140625 121.003906 81.207031 120.519531 83.449219 C 120.429688 83.867188 121.070312 84.042969 121.15625 83.625 C 121.753906 80.921875 119.855469 78.503906 117.078125 78.414062 C 116.660156 78.414062 116.660156 79.074219 117.078125 79.074219 Z M 117.078125 79.074219 " fill-opacity="1" fill-rule="nonzero"/><path fill="#000000" d="M 121.421875 83.515625 C 123.933594 81.230469 126.488281 78.964844 128.9375 76.609375 C 130.0625 75.53125 131.140625 74.433594 132.15625 73.246094 C 132.707031 72.609375 134.09375 71.355469 134.117188 70.472656 C 134.117188 70.363281 134.050781 70.230469 133.960938 70.1875 C 133.917969 70.167969 133.875 70.144531 133.851562 70.144531 C 133.71875 70.078125 133.542969 70.078125 133.453125 70.1875 C 133.433594 70.210938 133.410156 70.230469 133.390625 70.277344 C 133.125 70.605469 133.585938 71.066406 133.851562 70.738281 C 133.875 70.714844 133.894531 70.695312 133.917969 70.648438 C 133.785156 70.671875 133.652344 70.695312 133.519531 70.695312 C 133.476562 70.496094 133.410156 70.496094 133.324219 70.714844 C 133.210938 70.871094 133.101562 71.023438 132.96875 71.179688 C 132.707031 71.507812 132.460938 71.839844 132.175781 72.167969 C 131.734375 72.71875 131.25 73.246094 130.789062 73.773438 C 129.820312 74.828125 128.804688 75.820312 127.769531 76.785156 C 125.519531 78.898438 123.230469 80.941406 120.957031 83.03125 C 120.628906 83.339844 121.113281 83.800781 121.421875 83.515625 Z M 121.421875 83.515625 " fill-opacity="1" fill-rule="nonzero"/><path fill="#000000" d="M 121.707031 74.390625 C 121.863281 73.332031 122.015625 72.277344 122.171875 71.222656 C 122.28125 70.429688 122.371094 69.550781 122.808594 68.847656 C 123.824219 67.21875 125.257812 68.386719 126.027344 69.484375 C 126.359375 69.945312 126.667969 70.453125 126.996094 70.914062 C 127.171875 71.179688 128.03125 72.125 127.921875 72.453125 C 128.03125 72.367188 128.144531 72.300781 128.230469 72.210938 C 128.1875 72.210938 128.164062 72.210938 128.121094 72.210938 C 127.703125 72.191406 127.703125 72.847656 128.121094 72.871094 C 128.164062 72.871094 128.1875 72.871094 128.230469 72.871094 C 128.386719 72.871094 128.519531 72.761719 128.539062 72.628906 C 128.695312 72.078125 128.320312 71.75 128.03125 71.308594 C 127.484375 70.496094 126.953125 69.660156 126.378906 68.867188 C 125.785156 68.054688 125.015625 67.261719 123.910156 67.375 C 122.855469 67.484375 122.214844 68.296875 121.882812 69.242188 C 121.332031 70.804688 121.289062 72.585938 121.046875 74.214844 C 121.003906 74.632812 121.640625 74.808594 121.707031 74.390625 Z M 121.707031 74.390625 " fill-opacity="1" fill-rule="nonzero"/><path fill="#000000" d="M 122.742188 71.902344 C 123.339844 73.070312 124.332031 74.257812 125.742188 74.34375 C 126.910156 74.433594 128.011719 73.773438 128.320312 72.628906 C 128.429688 72.210938 127.789062 72.035156 127.679688 72.453125 C 127.394531 73.507812 126.226562 73.90625 125.257812 73.574219 C 124.332031 73.246094 123.734375 72.433594 123.316406 71.597656 C 123.117188 71.199219 122.546875 71.53125 122.742188 71.902344 Z M 122.742188 71.902344 " fill-opacity="1" fill-rule="nonzero"/><path fill="#000000" d="M 123.558594 67.613281 C 123.667969 66.539062 124.902344 66.25 125.742188 66.539062 C 126.625 66.824219 127.304688 67.613281 127.921875 68.253906 C 128.40625 68.757812 129.355469 69.460938 129.488281 70.167969 C 129.664062 71.113281 128.472656 71.75 127.679688 71.992188 C 127.285156 72.101562 127.4375 72.738281 127.855469 72.628906 C 128.828125 72.34375 130.238281 71.484375 130.390625 70.34375 C 130.457031 69.878906 130.171875 69.636719 129.863281 69.308594 C 129.246094 68.648438 128.648438 68.011719 128.011719 67.375 C 127.152344 66.492188 126.050781 65.546875 124.726562 65.769531 C 123.734375 65.921875 123.007812 66.582031 122.898438 67.59375 C 122.855469 68.03125 123.515625 68.03125 123.558594 67.613281 Z M 123.558594 67.613281 " fill-opacity="1" fill-rule="nonzero"/><path fill="#000000" d="M 124.75 65.988281 C 125.058594 65.636719 125.210938 65.175781 125.5 64.820312 C 126.203125 63.941406 127.304688 64.757812 128.03125 65.285156 C 129.441406 66.273438 130.941406 68.078125 129.664062 69.792969 C 129.421875 70.144531 129.996094 70.472656 130.238281 70.121094 C 131.601562 68.273438 130.257812 66.140625 128.695312 64.953125 C 127.964844 64.402344 126.863281 63.414062 125.875 63.699219 C 124.992188 63.941406 124.835938 64.953125 124.285156 65.546875 C 124 65.832031 124.464844 66.296875 124.75 65.988281 Z M 124.75 65.988281 " fill-opacity="1" fill-rule="nonzero"/><path fill="#000000" d="M 126.976562 63.984375 C 127.746094 63.039062 128.761719 62.050781 129.949219 63.039062 C 130.742188 63.679688 131.25 64.578125 131.539062 65.527344 C 131.667969 65.921875 132.285156 65.769531 132.175781 65.351562 C 131.800781 64.074219 130.941406 62.601562 129.664062 62.074219 C 128.363281 61.542969 127.285156 62.578125 126.511719 63.523438 C 126.246094 63.832031 126.710938 64.316406 126.976562 63.984375 Z M 126.976562 63.984375 " fill-opacity="1" fill-rule="nonzero"/><path fill="#000000" d="M 131.847656 64.074219 C 133.210938 62.910156 134.578125 61.742188 135.945312 60.597656 C 136.273438 60.3125 135.792969 59.851562 135.480469 60.136719 C 134.117188 61.304688 132.75 62.46875 131.382812 63.613281 C 131.050781 63.898438 131.539062 64.359375 131.847656 64.074219 Z M 131.847656 64.074219 " fill-opacity="1" fill-rule="nonzero"/><path fill="#000000" d="M 136.714844 66.890625 C 138.015625 65.945312 139.273438 64.933594 140.441406 63.832031 C 140.75 63.546875 140.285156 63.085938 139.976562 63.371094 C 138.832031 64.425781 137.640625 65.414062 136.386719 66.316406 C 136.03125 66.558594 136.363281 67.132812 136.714844 66.890625 Z M 136.714844 66.890625 " fill-opacity="1" fill-rule="nonzero"/><path stroke-linecap="butt" transform="matrix(0.796451, 0, 0, 0.796451, 0.000928664, 0.00002)" fill="none" stroke-linejoin="miter" d="M 184.082097 81.911215 C 193.3125 81.911215 200.79197 74.446458 200.79197 65.235674 C 200.79197 56.024889 193.3125 48.555228 184.082097 48.555228 C 174.851694 48.555228 167.367319 56.024889 167.367319 65.235674 C 167.367319 74.446458 174.851694 81.911215 184.082097 81.911215 Z M 184.082097 81.911215 " stroke="#000000" stroke-width="3" stroke-opacity="1" stroke-miterlimit="10"/><path fill="#000000" d="M 138.546875 53.582031 C 143.4375 50.460938 148.441406 47.511719 153.554688 44.742188 C 153.929688 44.542969 153.597656 43.972656 153.222656 44.171875 C 148.109375 46.917969 143.109375 49.867188 138.214844 53.011719 C 137.863281 53.253906 138.191406 53.824219 138.546875 53.582031 Z M 138.546875 53.582031 " fill-opacity="1" fill-rule="nonzero"/><path fill="#000000" d="M 139.097656 59.34375 C 143.128906 56.398438 147.207031 53.5625 151.371094 50.789062 C 151.726562 50.546875 151.394531 49.976562 151.042969 50.21875 C 146.898438 52.988281 142.800781 55.847656 138.765625 58.773438 C 138.414062 59.015625 138.746094 59.585938 139.097656 59.34375 Z M 139.097656 59.34375 " fill-opacity="1" fill-rule="nonzero"/></svg>